FacadeStencil-SemiBold.ufo
<glyph name="exclam" format="2">
  <advance width="480.0"/>
  <unicode hex="0021"/>
  <outline>
    <contour>
      <point x="178.5" y="322.5" type="line"/>
      <point x="301.5" y="322.5" type="line"/>
      <point x="330.0" y="900.0" type="line"/>
      <point x="150.0" y="900.0" type="line"/>
    </contour>
    <contour>
      <point x="240.0" y="-18.0" type="curve" smooth="yes"/>
      <point x="295.0" y="-18.0"/>
      <point x="337.5" y="24.75"/>
      <point x="337.5" y="79.5" type="curve" smooth="yes"/>
      <point x="337.5" y="134.25"/>
      <point x="295.0" y="177.0"/>
      <point x="240.0" y="177.0" type="curve" smooth="yes"/>
      <point x="185.25" y="177.0"/>
      <point x="142.5" y="134.25"/>
      <point x="142.5" y="79.5" type="curve" smooth="yes"/>
      <point x="142.5" y="24.75"/>
      <point x="185.25" y="-18.0"/>
    </contour>
  </outline>
</glyph>
<glyph name="numbersign" format="2">
  <advance width="750.0"/>
  <unicode hex="0023"/>
  <outline>
    <contour>
      <point x="148.75" y="390.0" type="line"/>
      <point x="281.5" y="390.0" type="line"/>
      <point x="366.5" y="900.0" type="line"/>
      <point x="234.5" y="900.0" type="line"/>
      <point x="198.5" y="684.0" type="line"/>
      <point x="92.5" y="684.0" type="line"/>
      <point x="72.5" y="564.0" type="line"/>
      <point x="178.5" y="564.0" type="line"/>
    </contour>
    <contour>
      <point x="370.5" y="564.0" type="line"/>
      <point x="711.0" y="564.0" type="line"/>
      <point x="731.0" y="684.0" type="line"/>
      <point x="627.5" y="684.0" type="line"/>
      <point x="663.5" y="900.0" type="line"/>
      <point x="531.5" y="900.0" type="line"/>
      <point x="495.5" y="684.0" type="line"/>
      <point x="389.75" y="684.0" type="line"/>
    </contour>
    <contour>
      <point x="84.5" y="0.0" type="line"/>
      <point x="216.5" y="0.0" type="line"/>
      <point x="252.5" y="216.0" type="line"/>
      <point x="358.25" y="216.0" type="line"/>
      <point x="377.5" y="336.0" type="line"/>
      <point x="37.0" y="336.0" type="line"/>
      <point x="17.0" y="216.0" type="line"/>
      <point x="120.5" y="216.0" type="line"/>
    </contour>
    <contour>
      <point x="381.5" y="0.0" type="line"/>
      <point x="513.5" y="0.0" type="line"/>
      <point x="549.5" y="216.0" type="line"/>
      <point x="657.0" y="216.0" type="line"/>
      <point x="677.0" y="336.0" type="line"/>
      <point x="569.5" y="336.0" type="line"/>
      <point x="598.5" y="510.0" type="line"/>
      <point x="466.5" y="510.0" type="line"/>
    </contour>
  </outline>
</glyph>
<glyph name="ampersand" format="2">
  <advance width="800.0"/>
  <unicode hex="0026"/>
  <outline>
    <contour>
      <point x="595.0" y="0.0" type="line"/>
      <point x="781.5" y="0.0" type="line"/>
      <point x="686.0" y="130.25" type="line"/>
      <point x="722.5" y="167.5"/>
      <point x="750.25" y="210.75"/>
      <point x="770.75" y="259.0" type="curve"/>
      <point x="668.25" y="399.75" type="line"/>
      <point x="665.25" y="342.0"/>
      <point x="643.5" y="285.75"/>
      <point x="608.25" y="240.25" type="curve"/>
      <point x="327.0" y="626.75" type="line" smooth="yes"/>
      <point x="306.0" y="656.25"/>
      <point x="288.75" y="681.5"/>
      <point x="288.75" y="713.0" type="curve" smooth="yes"/>
      <point x="288.75" y="746.0"/>
      <point x="308.75" y="775.25"/>
      <point x="337.5" y="787.25" type="curve"/>
      <point x="337.5" y="914.5" type="line"/>
      <point x="231.25" y="902.0"/>
      <point x="142.5" y="815.75"/>
      <point x="142.5" y="701.25" type="curve" smooth="yes"/>
      <point x="142.5" y="635.0"/>
      <point x="172.25" y="587.0"/>
      <point x="207.0" y="539.25" type="curve" smooth="yes"/>
    </contour>
    <contour>
      <point x="365.25" y="-16.5" type="curve" smooth="yes"/>
      <point x="418.5" y="-16.5"/>
      <point x="472.75" y="-6.25"/>
      <point x="517.5" y="17.25" type="curve"/>
      <point x="434.5" y="131.5" type="line"/>
      <point x="420.75" y="124.25"/>
      <point x="402.5" y="121.0"/>
      <point x="381.75" y="121.0" type="curve" smooth="yes"/>
      <point x="270.25" y="121.0"/>
      <point x="208.75" y="194.75"/>
      <point x="208.75" y="281.75" type="curve" smooth="yes"/>
      <point x="208.75" y="329.0"/>
      <point x="227.75" y="363.25"/>
      <point x="250.25" y="387.75" type="curve"/>
      <point x="172.0" y="497.5" type="line"/>
      <point x="102.75" y="444.5"/>
      <point x="57.5" y="372.75"/>
      <point x="54.75" y="277.0" type="curve" smooth="yes"/>
      <point x="50.0" y="107.5"/>
      <point x="184.25" y="-16.5"/>
    </contour>
    <contour>
      <point x="474.5" y="516.5" type="line"/>
      <point x="524.5" y="545.5"/>
      <point x="600.0" y="601.0"/>
      <point x="600.0" y="702.25" type="curve" smooth="yes"/>
      <point x="600.0" y="813.5"/>
      <point x="508.5" y="900.5"/>
      <point x="401.5" y="914.5" type="curve"/>
      <point x="401.5" y="788.75" type="line"/>
      <point x="432.25" y="778.25"/>
      <point x="453.75" y="746.5"/>
      <point x="453.75" y="708.75" type="curve" smooth="yes"/>
      <point x="453.75" y="662.5"/>
      <point x="421.75" y="635.75"/>
      <point x="398.75" y="621.5" type="curve"/>
    </contour>
  </outline>
</glyph>
<glyph name="one" format="2">
  <advance width="750.0"/>
  <unicode hex="0031"/>
  <outline>
    <contour>
      <point x="153.0" y="599.5" type="line"/>
      <point x="502.5" y="775.75" type="line"/>
      <point x="502.5" y="929.0" type="line"/>
      <point x="153.0" y="754.0" type="line"/>
    </contour>
    <contour>
      <point x="153.0" y="0.0" type="line"/>
      <point x="657.0" y="0.0" type="line"/>
      <point x="657.0" y="130.5" type="line"/>
      <point x="153.0" y="130.5" type="line"/>
    </contour>
    <contour>
      <point x="347.5" y="184.5" type="line"/>
      <point x="502.5" y="184.5" type="line"/>
      <point x="502.5" y="715.0" type="line"/>
      <point x="347.5" y="636.75" type="line"/>
    </contour>
  </outline>
</glyph>
<glyph name="two" format="2">
  <advance width="750.0"/>
  <unicode hex="0032"/>
  <outline>
    <contour>
      <point x="94.25" y="0.0" type="line"/>
      <point x="266.0" y="0.0" type="line"/>
      <point x="586.25" y="455.75" type="line"/>
      <point x="635.25" y="525.75"/>
      <point x="656.75" y="578.5"/>
      <point x="656.75" y="640.75" type="curve" smooth="yes"/>
      <point x="656.75" y="784.75"/>
      <point x="541.75" y="902.25"/>
      <point x="398.75" y="917.0" type="curve"/>
      <point x="398.75" y="767.25" type="line"/>
      <point x="457.25" y="754.25"/>
      <point x="499.25" y="703.25"/>
      <point x="499.25" y="640.75" type="curve" smooth="yes"/>
      <point x="499.25" y="613.25"/>
      <point x="490.5" y="584.0"/>
      <point x="459.0" y="537.0" type="curve" smooth="yes"/>
    </contour>
    <contour>
      <point x="333.5" y="0.0" type="line"/>
      <point x="669.25" y="0.0" type="line"/>
      <point x="669.25" y="147.0" type="line"/>
      <point x="436.5" y="147.0" type="line"/>
    </contour>
    <contour>
      <point x="112.0" y="522.0" type="curve"/>
      <point x="293.25" y="522.0" type="line"/>
      <point x="253.75" y="555.0"/>
      <point x="233.75" y="596.25"/>
      <point x="233.75" y="640.75" type="curve" smooth="yes"/>
      <point x="233.75" y="703.25"/>
      <point x="275.75" y="755.0"/>
      <point x="334.75" y="768.0" type="curve"/>
      <point x="334.75" y="916.75" type="line"/>
      <point x="189.75" y="902.0"/>
      <point x="80.75" y="781.75"/>
      <point x="80.75" y="641.5" type="curve" smooth="yes"/>
      <point x="80.75" y="599.5"/>
      <point x="91.0" y="560.5"/>
    </contour>
  </outline>
</glyph>
<glyph name="four" format="2">
  <advance width="750.0"/>
  <unicode hex="0034"/>
  <outline>
    <contour>
      <point x="7.5" y="219.5" type="line"/>
      <point x="167.75" y="219.5" type="line"/>
      <point x="520.75" y="900.0" type="line"/>
      <point x="355.75" y="900.0" type="line"/>
    </contour>
    <contour>
      <point x="442.5" y="0.0" type="line"/>
      <point x="595.5" y="0.0" type="line"/>
      <point x="595.5" y="165.5" type="line"/>
      <point x="442.5" y="165.5" type="line"/>
    </contour>
    <contour>
      <point x="233.75" y="219.5" type="line"/>
      <point x="705.0" y="219.5" type="line"/>
      <point x="705.0" y="351.5" type="line"/>
      <point x="591.75" y="351.5" type="line"/>
      <point x="591.75" y="615.0" type="line"/>
      <point x="446.25" y="537.0" type="line"/>
      <point x="446.25" y="351.5" type="line"/>
      <point x="301.5" y="351.5" type="line"/>
    </contour>
  </outline>
</glyph>
<glyph name="six" format="2">
  <advance width="750.0"/>
  <unicode hex="0036"/>
  <outline>
    <contour>
      <point x="349.25" y="-17.0" type="curve"/>
      <point x="349.25" y="131.75" type="line"/>
      <point x="270.5" y="146.0"/>
      <point x="212.0" y="215.25"/>
      <point x="212.0" y="298.0" type="curve" smooth="yes"/>
      <point x="212.0" y="341.0"/>
      <point x="224.0" y="384.25"/>
      <point x="256.25" y="442.75" type="curve" smooth="yes"/>
      <point x="504.0" y="900.0" type="line"/>
      <point x="335.0" y="900.0" type="line"/>
      <point x="97.75" y="449.0" type="line" smooth="yes"/>
      <point x="71.75" y="399.0"/>
      <point x="57.0" y="348.75"/>
      <point x="57.0" y="293.75" type="curve" smooth="yes"/>
      <point x="57.0" y="128.75"/>
      <point x="183.25" y="-3.0"/>
    </contour>
    <contour>
      <point x="413.25" y="-17.0" type="line"/>
      <point x="579.0" y="-2.0"/>
      <point x="705.0" y="128.75"/>
      <point x="705.0" y="295.5" type="curve" smooth="yes"/>
      <point x="705.0" y="467.0"/>
      <point x="572.75" y="593.5"/>
      <point x="408.75" y="601.75" type="curve"/>
      <point x="332.0" y="460.0" type="line"/>
      <point x="347.75" y="464.5"/>
      <point x="364.25" y="467.0"/>
      <point x="381.25" y="467.0" type="curve" smooth="yes"/>
      <point x="477.0" y="467.0"/>
      <point x="550.5" y="390.5"/>
      <point x="550.5" y="298.0" type="curve" smooth="yes"/>
      <point x="550.5" y="215.25"/>
      <point x="491.75" y="145.75"/>
      <point x="413.25" y="131.75" type="curve"/>
    </contour>
  </outline>
</glyph>
<glyph name="nine" format="2">
  <advance width="750.0"/>
  <unicode hex="0039"/>
  <outline>
    <contour>
      <point x="240.0" y="0.0" type="line"/>
      <point x="406.0" y="0.0" type="line"/>
      <point x="647.25" y="461.5" type="line" smooth="yes"/>
      <point x="672.5" y="510.0"/>
      <point x="687.0" y="558.75"/>
      <point x="687.0" y="613.0" type="curve" smooth="yes"/>
      <point x="687.0" y="774.25"/>
      <point x="563.0" y="903.0"/>
      <point x="401.75" y="917.0" type="curve"/>
      <point x="401.75" y="768.25" type="line"/>
      <point x="476.0" y="754.25"/>
      <point x="532.5" y="688.0"/>
      <point x="532.5" y="608.25" type="curve" smooth="yes"/>
      <point x="532.5" y="572.25"/>
      <point x="524.0" y="537.25"/>
      <point x="495.25" y="483.5" type="curve" smooth="yes"/>
    </contour>
    <contour>
      <point x="336.25" y="310.5" type="curve"/>
      <point x="411.0" y="451.0" type="line"/>
      <point x="397.5" y="447.0"/>
      <point x="384.0" y="445.5"/>
      <point x="369.75" y="445.5" type="curve" smooth="yes"/>
      <point x="278.5" y="445.5"/>
      <point x="207.0" y="518.5"/>
      <point x="207.0" y="608.25" type="curve" smooth="yes"/>
      <point x="207.0" y="688.0"/>
      <point x="262.25" y="754.0"/>
      <point x="337.75" y="768.25" type="curve"/>
      <point x="337.75" y="917.0" type="line"/>
      <point x="176.25" y="902.0"/>
      <point x="52.5" y="774.25"/>
      <point x="52.5" y="610.75" type="curve" smooth="yes"/>
      <point x="52.5" y="446.5"/>
      <point x="174.5" y="321.75"/>
    </contour>
  </outline>
</glyph>
<glyph name="less" format="2">
  <advance width="750.0"/>
  <unicode hex="003C"/>
  <outline>
    <contour>
      <point x="673.5" y="135.5" type="line"/>
      <point x="673.5" y="277.75" type="line"/>
      <point x="418.5" y="400.0" type="line" smooth="yes"/>
      <point x="381.5" y="418.0"/>
      <point x="338.5" y="435.0"/>
      <point x="297.5" y="451.0" type="curve"/>
      <point x="338.5" y="468.0"/>
      <point x="381.5" y="485.0"/>
      <point x="418.5" y="503.0" type="curve" smooth="yes"/>
      <point x="673.5" y="626.25" type="line"/>
      <point x="673.5" y="766.5" type="line"/>
      <point x="33.0" y="451.5" type="line"/>
    </contour>
  </outline>
</glyph>
<glyph name="question" format="2">
  <advance width="480.0"/>
  <unicode hex="003F"/>
  <outline>
    <contour>
      <point x="178.5" y="322.5" type="curve"/>
      <point x="301.5" y="322.5" type="line"/>
      <point x="318.75" y="471.25"/>
      <point x="459.0" y="543.0"/>
      <point x="459.0" y="699.75" type="curve" smooth="yes"/>
      <point x="459.0" y="798.5"/>
      <point x="403.5" y="876.0"/>
      <point x="310.5" y="903.75" type="curve"/>
      <point x="310.5" y="683.25" type="line" smooth="yes"/>
      <point x="310.5" y="577.0"/>
      <point x="178.5" y="516.75"/>
    </contour>
    <contour>
      <point x="240.0" y="-18.0" type="curve" smooth="yes"/>
      <point x="295.0" y="-18.0"/>
      <point x="337.5" y="24.75"/>
      <point x="337.5" y="79.5" type="curve" smooth="yes"/>
      <point x="337.5" y="134.25"/>
      <point x="295.0" y="177.0"/>
      <point x="240.0" y="177.0" type="curve" smooth="yes"/>
      <point x="185.25" y="177.0"/>
      <point x="142.5" y="134.25"/>
      <point x="142.5" y="79.5" type="curve" smooth="yes"/>
      <point x="142.5" y="24.75"/>
      <point x="185.25" y="-18.0"/>
    </contour>
    <contour>
      <point x="72.0" y="702.75" type="line"/>
      <point x="101.5" y="739.0"/>
      <point x="147.75" y="774.5"/>
      <point x="208.0" y="774.5" type="curve" smooth="yes"/>
      <point x="225.75" y="774.5"/>
      <point x="241.5" y="771.75"/>
      <point x="255.0" y="766.5" type="curve"/>
      <point x="255.0" y="913.75" type="line"/>
      <point x="242.25" y="916.0"/>
      <point x="233.25" y="916.5"/>
      <point x="221.75" y="916.5" type="curve" smooth="yes"/>
      <point x="167.0" y="916.5"/>
      <point x="115.25" y="897.75"/>
      <point x="72.0" y="865.75" type="curve"/>
    </contour>
  </outline>
</glyph>
<glyph name="A" format="2">
  <advance width="815.0"/>
  <unicode hex="0041"/>
  <anchor x="407.5" y="0.0" name="bottom"/>
  <anchor x="672.75" y="0.0" name="ogonek"/>
  <anchor x="407.5" y="900.0" name="top"/>
  <anchor x="127.5" y="720.0" name="top-vertical"/>
  <outline>
    <contour>
      <point x="635.5" y="0.0" type="line"/>
      <point x="801.5" y="0.0" type="line"/>
      <point x="408.5" y="931.5" type="line"/>
      <point x="406.5" y="931.5" type="line"/>
      <point x="327.5" y="745.0" type="line"/>
    </contour>
    <contour>
      <point x="13.5" y="0.0" type="line"/>
      <point x="173.5" y="0.0" type="line"/>
      <point x="371.75" y="480.25" type="line"/>
      <point x="294.0" y="667.75" type="line"/>
    </contour>
    <contour>
      <point x="316.5" y="186.75" type="line"/>
      <point x="615.75" y="186.75" type="line"/>
      <point x="561.25" y="318.5" type="line"/>
      <point x="371.0" y="318.5" type="line"/>
    </contour>
  </outline>
</glyph>
<glyph name="B" format="2">
  <advance width="750.0"/>
  <unicode hex="0042"/>
  <outline>
    <contour>
      <point x="322.5" y="0.0" type="line"/>
      <point x="369.0" y="0.0" type="line" smooth="yes"/>
      <point x="585.0" y="0.0"/>
      <point x="699.0" y="152.25"/>
      <point x="699.0" y="303.5" type="curve" smooth="yes"/>
      <point x="699.0" y="433.25"/>
      <point x="614.5" y="539.25"/>
      <point x="494.75" y="578.5" type="curve"/>
      <point x="505.5" y="519.0" type="line"/>
      <point x="573.5" y="550.75"/>
      <point x="618.0" y="614.75"/>
      <point x="618.0" y="690.5" type="curve" smooth="yes"/>
      <point x="618.0" y="777.25"/>
      <point x="555.75" y="900.0"/>
      <point x="378.0" y="900.0" type="curve" smooth="yes"/>
      <point x="322.5" y="900.0" type="line"/>
      <point x="322.5" y="775.5" type="line"/>
      <point x="357.25" y="775.5" type="line" smooth="yes"/>
      <point x="420.25" y="775.5"/>
      <point x="465.0" y="743.25"/>
      <point x="465.0" y="681.5" type="curve" smooth="yes"/>
      <point x="465.0" y="621.75"/>
      <point x="420.25" y="589.5"/>
      <point x="353.25" y="589.5" type="curve" smooth="yes"/>
      <point x="322.5" y="589.5" type="line"/>
      <point x="322.5" y="471.0" type="line"/>
      <point x="353.5" y="471.0" type="line" smooth="yes"/>
      <point x="482.75" y="471.0"/>
      <point x="529.5" y="381.0"/>
      <point x="529.5" y="309.0" type="curve" smooth="yes"/>
      <point x="529.5" y="234.75"/>
      <point x="479.5" y="147.0"/>
      <point x="353.5" y="147.0" type="curve" smooth="yes"/>
      <point x="322.5" y="147.0" type="line"/>
    </contour>
    <contour>
      <point x="103.5" y="0.0" type="line"/>
      <point x="262.5" y="0.0" type="line"/>
      <point x="262.5" y="900.0" type="line"/>
      <point x="103.5" y="900.0" type="line"/>
    </contour>
  </outline>
</glyph>
<glyph name="D" format="2">
  <advance width="945.0"/>
  <unicode hex="0044"/>
  <anchor x="407.0" y="0.0" name="bottom"/>
  <anchor x="179.0" y="480.0" name="center"/>
  <anchor x="407.0" y="914.0" name="top"/>
  <outline>
    <contour>
      <point x="322.5" y="0.0" type="line"/>
      <point x="406.75" y="0.0" type="line" smooth="yes"/>
      <point x="703.5" y="0.0"/>
      <point x="889.5" y="210.75"/>
      <point x="889.5" y="450.0" type="curve" smooth="yes"/>
      <point x="889.5" y="689.25"/>
      <point x="703.5" y="900.0"/>
      <point x="406.75" y="900.0" type="curve" smooth="yes"/>
      <point x="322.5" y="900.0" type="line"/>
      <point x="322.5" y="753.0" type="line"/>
      <point x="391.75" y="753.0" type="line" smooth="yes"/>
      <point x="612.25" y="753.0"/>
      <point x="719.0" y="607.5"/>
      <point x="719.0" y="450.0" type="curve" smooth="yes"/>
      <point x="719.0" y="292.5"/>
      <point x="612.25" y="147.0"/>
      <point x="391.75" y="147.0" type="curve" smooth="yes"/>
      <point x="322.5" y="147.0" type="line"/>
    </contour>
    <contour>
      <point x="103.5" y="0.0" type="line"/>
      <point x="262.5" y="0.0" type="line"/>
      <point x="262.5" y="900.0" type="line"/>
      <point x="103.5" y="900.0" type="line"/>
    </contour>
  </outline>
</glyph>
<glyph name="G" format="2">
  <advance width="925.0"/>
  <unicode hex="0047"/>
  <anchor x="529.0" y="0.0" name="bottom"/>
  <anchor x="783.0" y="270.0" name="center"/>
  <anchor x="530.0" y="900.0" name="top"/>
  <outline>
    <contour>
      <point x="537.25" y="-18.0" type="curve" smooth="yes"/>
      <point x="568.0" y="-18.0"/>
      <point x="596.75" y="-15.0"/>
      <point x="625.0" y="-7.5" type="curve"/>
      <point x="625.0" y="148.75" type="line"/>
      <point x="598.0" y="137.75"/>
      <point x="568.5" y="133.5"/>
      <point x="535.0" y="133.5" type="curve" smooth="yes"/>
      <point x="358.5" y="133.5"/>
      <point x="226.0" y="267.5"/>
      <point x="226.0" y="448.5" type="curve" smooth="yes"/>
      <point x="226.0" y="617.25"/>
      <point x="342.25" y="747.25"/>
      <point x="502.0" y="762.5" type="curve"/>
      <point x="502.0" y="917.0" type="line"/>
      <point x="250.0" y="902.5"/>
      <point x="55.5" y="704.0"/>
      <point x="55.5" y="448.5" type="curve" smooth="yes"/>
      <point x="55.5" y="182.25"/>
      <point x="267.25" y="-18.0"/>
    </contour>
    <contour>
      <point x="689.0" y="2.5" type="line"/>
      <point x="742.5" y="17.25"/>
      <point x="794.75" y="41.25"/>
      <point x="839.5" y="71.25" type="curve"/>
      <point x="839.5" y="498.0" type="line"/>
      <point x="489.75" y="498.0" type="line"/>
      <point x="489.75" y="360.0" type="line"/>
      <point x="689.0" y="360.0" type="line"/>
    </contour>
    <contour>
      <point x="807.0" y="612.5" type="curve"/>
      <point x="853.5" y="801.5" type="line"/>
      <point x="776.75" y="868.5"/>
      <point x="678.75" y="910.75"/>
      <point x="570.0" y="917.0" type="curve"/>
      <point x="570.0" y="762.5" type="line"/>
      <point x="675.75" y="752.75"/>
      <point x="757.5" y="692.0"/>
    </contour>
  </outline>
</glyph>
<glyph name="N" format="2">
  <advance width="922.5"/>
  <unicode hex="004E"/>
  <anchor x="472.5" y="0.0" name="bottom"/>
  <anchor x="472.5" y="900.0" name="top"/>
  <outline>
    <contour>
      <point x="819.0" y="-30.0" type="line"/>
      <point x="819.0" y="203.5" type="line"/>
      <point x="103.5" y="930.0" type="line"/>
      <point x="103.5" y="698.0" type="line"/>
    </contour>
    <contour>
      <point x="103.5" y="0.0" type="line"/>
      <point x="256.5" y="0.0" type="line"/>
      <point x="256.5" y="446.25" type="line"/>
      <point x="103.5" y="600.5" type="line"/>
    </contour>
    <contour>
      <point x="819.0" y="301.0" type="line"/>
      <point x="819.0" y="900.0" type="line"/>
      <point x="666.0" y="900.0" type="line"/>
      <point x="666.0" y="455.0" type="line"/>
    </contour>
  </outline>
</glyph>
<glyph name="Q" format="2">
  <advance width="1060.0"/>
  <unicode hex="0051"/>
  <outline>
    <contour>
      <point x="530.0" y="-18.0" type="curve" smooth="yes"/>
      <point x="596.75" y="-18.0"/>
      <point x="660.5" y="-4.25"/>
      <point x="717.75" y="20.25" type="curve"/>
      <point x="608.75" y="150.75" type="line"/>
      <point x="583.75" y="143.25"/>
      <point x="557.25" y="139.5"/>
      <point x="530.0" y="139.5" type="curve" smooth="yes"/>
      <point x="359.0" y="139.5"/>
      <point x="226.0" y="278.0"/>
      <point x="226.0" y="450.0" type="curve" smooth="yes"/>
      <point x="226.0" y="611.25"/>
      <point x="343.25" y="743.5"/>
      <point x="496.0" y="758.75" type="curve"/>
      <point x="496.0" y="917.0" type="line"/>
      <point x="251.0" y="901.25"/>
      <point x="55.5" y="699.0"/>
      <point x="55.5" y="450.0" type="curve" smooth="yes"/>
      <point x="55.5" y="191.0"/>
      <point x="267.75" y="-18.0"/>
    </contour>
    <contour>
      <point x="832.0" y="-30.0" type="line"/>
      <point x="1015.5" y="-30.0" type="line"/>
      <point x="616.5" y="450.0" type="line"/>
      <point x="433.0" y="450.0" type="line"/>
    </contour>
    <contour>
      <point x="828.5" y="86.25" type="line"/>
      <point x="935.75" y="171.25"/>
      <point x="1004.5" y="303.0"/>
      <point x="1004.5" y="450.0" type="curve" smooth="yes"/>
      <point x="1004.5" y="699.0"/>
      <point x="808.25" y="902.0"/>
      <point x="564.0" y="917.0" type="curve"/>
      <point x="564.0" y="758.75" type="line"/>
      <point x="716.0" y="743.5"/>
      <point x="834.0" y="612.0"/>
      <point x="834.0" y="450.0" type="curve" smooth="yes"/>
      <point x="834.0" y="356.75"/>
      <point x="795.5" y="274.0"/>
      <point x="732.75" y="217.75" type="curve"/>
    </contour>
  </outline>
</glyph>
<glyph name="W" format="2">
  <advance width="1215.0"/>
  <unicode hex="0057"/>
  <anchor x="608.5" y="0.0" name="bottom"/>
  <anchor x="611.5" y="900.0" name="top"/>
  <outline>
    <contour>
      <point x="843.5" y="-31.5" type="line"/>
      <point x="921.0" y="165.0" type="line"/>
      <point x="611.5" y="930.0" type="line"/>
      <point x="419.75" y="451.5" type="line"/>
      <point x="492.5" y="267.5" type="line"/>
      <point x="563.5" y="448.25" type="line" smooth="yes"/>
      <point x="577.75" y="483.75"/>
      <point x="592.25" y="517.75"/>
      <point x="607.75" y="572.5" type="curve"/>
      <point x="623.0" y="517.75"/>
      <point x="637.75" y="483.0"/>
      <point x="652.0" y="447.5" type="curve" smooth="yes"/>
    </contour>
    <contour>
      <point x="371.75" y="-31.5" type="line"/>
      <point x="459.0" y="183.5" type="line"/>
      <point x="179.0" y="900.0" type="line"/>
      <point x="7.5" y="900.0" type="line"/>
    </contour>
    <contour>
      <point x="953.25" y="248.25" type="line"/>
      <point x="1207.5" y="900.0" type="line"/>
      <point x="1044.75" y="900.0" type="line"/>
      <point x="870.75" y="450.0" type="line"/>
    </contour>
  </outline>
</glyph>
<glyph name="X" format="2">
  <advance width="870.0"/>
  <unicode hex="0058"/>
  <outline>
    <contour>
      <point x="677.0" y="0.0" type="line"/>
      <point x="868.5" y="0.0" type="line"/>
      <point x="273.75" y="900.0" type="line"/>
      <point x="85.5" y="900.0" type="line"/>
    </contour>
    <contour>
      <point x="6.0" y="0.0" type="line"/>
      <point x="191.5" y="0.0" type="line"/>
      <point x="391.25" y="325.5" type="line"/>
      <point x="296.0" y="471.0" type="line"/>
    </contour>
    <contour>
      <point x="571.0" y="559.0" type="line"/>
      <point x="784.5" y="900.0" type="line"/>
      <point x="605.25" y="900.0" type="line"/>
      <point x="478.25" y="700.25" type="line"/>
    </contour>
  </outline>
</glyph>
<glyph name="Y" format="2">
  <advance width="705.0"/>
  <unicode hex="0059"/>
  <anchor x="353.5" y="0.0" name="bottom"/>
  <anchor x="353.5" y="900.0" name="top"/>
  <anchor x="30.5" y="900.0" name="topleft"/>
  <outline>
    <contour>
      <point x="270.75" y="0.0" type="line"/>
      <point x="434.25" y="0.0" type="line"/>
      <point x="434.25" y="428.25" type="line"/>
      <point x="193.5" y="900.0" type="line"/>
      <point x="9.0" y="900.0" type="line"/>
      <point x="270.75" y="428.25" type="line"/>
    </contour>
    <contour>
      <point x="472.0" y="497.0" type="line"/>
      <point x="696.0" y="900.0" type="line"/>
      <point x="523.5" y="900.75" type="line"/>
      <point x="391.5" y="655.5" type="line"/>
    </contour>
  </outline>
</glyph>
<glyph name="c" format="2">
  <advance width="607.5"/>
  <unicode hex="0063"/>
  <anchor x="371.0" y="0.0" name="bottom"/>
  <anchor x="371.0" y="600.0" name="top"/>
  <outline>
    <contour>
      <point x="329.0" y="-16.25" type="curve"/>
      <point x="329.0" y="128.0" type="line"/>
      <point x="249.25" y="145.75"/>
      <point x="193.5" y="216.0"/>
      <point x="193.5" y="300.0" type="curve" smooth="yes"/>
      <point x="193.5" y="384.0"/>
      <point x="250.0" y="454.25"/>
      <point x="329.0" y="471.25" type="curve"/>
      <point x="329.0" y="616.25" type="line"/>
      <point x="166.75" y="600.5"/>
      <point x="40.5" y="465.0"/>
      <point x="40.5" y="300.0" type="curve" smooth="yes"/>
      <point x="40.5" y="135.75"/>
      <point x="166.0" y="0.25"/>
    </contour>
    <contour>
      <point x="393.0" y="-16.25" type="line"/>
      <point x="465.0" y="-10.75"/>
      <point x="529.75" y="17.25"/>
      <point x="580.5" y="63.75" type="curve"/>
      <point x="538.5" y="230.5" type="line"/>
      <point x="508.5" y="178.75"/>
      <point x="458.0" y="135.25"/>
      <point x="393.0" y="125.75" type="curve"/>
    </contour>
    <contour>
      <point x="538.5" y="369.5" type="curve"/>
      <point x="580.5" y="536.25" type="line"/>
      <point x="529.75" y="582.0"/>
      <point x="465.0" y="610.75"/>
      <point x="393.0" y="616.25" type="curve"/>
      <point x="393.0" y="472.75" type="line"/>
      <point x="458.0" y="464.75"/>
      <point x="509.25" y="420.25"/>
    </contour>
  </outline>
</glyph>
<glyph name="g" format="2">
  <advance width="745.0"/>
  <unicode hex="0067"/>
  <anchor x="381.0" y="-345.0" name="bottom"/>
  <anchor x="602.75" y="300.0" name="center"/>
  <anchor x="381.0" y="600.0" name="top"/>
  <outline>
    <contour>
      <point x="340.25" y="-14.0" type="curve" smooth="yes"/>
      <point x="381.75" y="-14.0"/>
      <point x="420.0" y="-5.5"/>
      <point x="454.0" y="10.0" type="curve"/>
      <point x="454.0" y="154.75" type="line"/>
      <point x="427.0" y="136.25"/>
      <point x="394.25" y="125.25"/>
      <point x="359.5" y="125.25" type="curve" smooth="yes"/>
      <point x="265.0" y="125.25"/>
      <point x="189.0" y="203.5"/>
      <point x="189.0" y="300.0" type="curve" smooth="yes"/>
      <point x="189.0" y="396.5"/>
      <point x="265.0" y="474.75"/>
      <point x="359.5" y="474.75" type="curve" smooth="yes"/>
      <point x="394.25" y="474.75"/>
      <point x="427.0" y="463.75"/>
      <point x="454.0" y="445.25" type="curve"/>
      <point x="454.0" y="590.0" type="line"/>
      <point x="420.0" y="605.5"/>
      <point x="381.75" y="614.0"/>
      <point x="340.25" y="614.0" type="curve" smooth="yes"/>
      <point x="174.5" y="614.0"/>
      <point x="40.5" y="473.0"/>
      <point x="40.5" y="300.0" type="curve" smooth="yes"/>
      <point x="40.5" y="127.0"/>
      <point x="174.5" y="-14.0"/>
    </contour>
    <contour>
      <point x="392.75" y="-318.0" type="line"/>
      <point x="545.75" y="-295.75"/>
      <point x="671.5" y="-181.5"/>
      <point x="671.5" y="-6.0" type="curve" smooth="yes"/>
      <point x="671.5" y="600.0" type="line"/>
      <point x="514.0" y="600.0" type="line"/>
      <point x="514.0" y="14.25" type="line" smooth="yes"/>
      <point x="514.0" y="-79.25"/>
      <point x="468.5" y="-153.0"/>
      <point x="392.75" y="-176.25" type="curve"/>
    </contour>
    <contour>
      <point x="328.75" y="-318.0" type="curve"/>
      <point x="328.75" y="-180.5" type="line"/>
      <point x="242.75" y="-180.5"/>
      <point x="173.0" y="-140.0"/>
      <point x="131.0" y="-82.75" type="curve"/>
      <point x="92.0" y="-242.25" type="line"/>
      <point x="152.25" y="-289.25"/>
      <point x="237.0" y="-318.0"/>
    </contour>
  </outline>
</glyph>
<glyph name="k" format="2">
  <advance width="660.0"/>
  <unicode hex="006B"/>
  <anchor x="330.0" y="0.0" name="bottom"/>
  <anchor x="150.0" y="960.0" name="top"/>
  <outline>
    <contour>
      <point x="470.5" y="0.0" type="line"/>
      <point x="658.5" y="0.0" type="line"/>
      <point x="376.75" y="371.25" type="line"/>
      <point x="363.25" y="298.0" type="line"/>
      <point x="598.5" y="600.0" type="line"/>
      <point x="427.0" y="600.0" type="line"/>
      <point x="291.0" y="421.0" type="line"/>
      <point x="291.0" y="238.25" type="line"/>
    </contour>
    <contour>
      <point x="73.5" y="0.0" type="line"/>
      <point x="231.0" y="0.0" type="line"/>
      <point x="231.0" y="960.0" type="line"/>
      <point x="73.5" y="960.0" type="line"/>
    </contour>
  </outline>
</glyph>
<glyph name="m" format="2">
  <advance width="1090.0"/>
  <unicode hex="006D"/>
  <anchor x="566.0" y="0.0" name="bottom"/>
  <anchor x="566.0" y="600.0" name="top"/>
  <outline>
    <contour>
      <point x="871.0" y="0.0" type="line"/>
      <point x="1028.5" y="0.0" type="line"/>
      <point x="1028.5" y="364.0" type="line" smooth="yes"/>
      <point x="1028.5" y="523.75"/>
      <point x="912.0" y="618.0"/>
      <point x="782.0" y="618.0" type="curve" smooth="yes"/>
      <point x="714.25" y="618.0"/>
      <point x="651.75" y="595.75"/>
      <point x="605.5" y="553.75" type="curve"/>
      <point x="602.25" y="593.5" type="line"/>
      <point x="643.0" y="552.0"/>
      <point x="673.5" y="495.5"/>
      <point x="684.75" y="427.5" type="curve"/>
      <point x="656.75" y="430.75" type="line"/>
      <point x="679.75" y="460.5"/>
      <point x="714.5" y="475.25"/>
      <point x="750.75" y="475.25" type="curve" smooth="yes"/>
      <point x="823.5" y="475.25"/>
      <point x="871.0" y="417.25"/>
      <point x="871.0" y="342.0" type="curve" smooth="yes"/>
    </contour>
    <contour>
      <point x="73.5" y="0.0" type="line"/>
      <point x="231.0" y="0.0" type="line"/>
      <point x="231.0" y="600.0" type="line"/>
      <point x="73.5" y="600.0" type="line"/>
    </contour>
    <contour>
      <point x="472.25" y="0.0" type="line"/>
      <point x="629.75" y="0.0" type="line"/>
      <point x="629.75" y="364.0" type="line" smooth="yes"/>
      <point x="629.75" y="523.75"/>
      <point x="521.0" y="618.0"/>
      <point x="397.25" y="618.0" type="curve" smooth="yes"/>
      <point x="359.5" y="618.0"/>
      <point x="323.5" y="609.25"/>
      <point x="291.0" y="592.5" type="curve"/>
      <point x="291.0" y="459.25" type="line"/>
      <point x="309.25" y="470.25"/>
      <point x="330.5" y="475.5"/>
      <point x="352.0" y="475.5" type="curve" smooth="yes"/>
      <point x="423.5" y="475.5"/>
      <point x="472.25" y="418.25"/>
      <point x="472.25" y="342.0" type="curve" smooth="yes"/>
    </contour>
  </outline>
</glyph>
<glyph name="o" format="2">
  <advance width="725.0"/>
  <unicode hex="006F"/>
  <anchor x="362.5" y="0.0" name="bottom"/>
  <anchor x="362.5" y="300.0" name="center"/>
  <anchor x="392.5" y="0.0" name="ogonek"/>
  <anchor x="362.5" y="600.0" name="top"/>
  <anchor x="522.5" y="600.0" name="topright"/>
  <outline>
    <contour>
      <point x="396.5" y="-17.0" type="line"/>
      <point x="558.5" y="-2.0"/>
      <point x="684.5" y="134.0"/>
      <point x="684.5" y="300.0" type="curve" smooth="yes"/>
      <point x="684.5" y="466.0"/>
      <point x="558.5" y="602.0"/>
      <point x="396.5" y="617.0" type="curve"/>
      <point x="396.5" y="472.75" type="line"/>
      <point x="475.25" y="458.5"/>
      <point x="535.25" y="387.25"/>
      <point x="535.25" y="300.0" type="curve" smooth="yes"/>
      <point x="535.25" y="212.75"/>
      <point x="475.25" y="141.5"/>
      <point x="396.5" y="127.25" type="curve"/>
    </contour>
    <contour>
      <point x="328.5" y="-17.0" type="curve"/>
      <point x="328.5" y="127.25" type="line"/>
      <point x="248.75" y="141.5"/>
      <point x="189.75" y="212.75"/>
      <point x="189.75" y="300.0" type="curve" smooth="yes"/>
      <point x="189.75" y="387.25"/>
      <point x="248.75" y="458.5"/>
      <point x="328.5" y="472.75" type="curve"/>
      <point x="328.5" y="617.0" type="line"/>
      <point x="166.5" y="602.0"/>
      <point x="40.5" y="466.0"/>
      <point x="40.5" y="300.0" type="curve" smooth="yes"/>
      <point x="40.5" y="134.0"/>
      <point x="166.5" y="-2.0"/>
    </contour>
  </outline>
</glyph>
<glyph name="p" format="2">
  <advance width="745.0"/>
  <unicode hex="0070"/>
  <anchor x="390.0" y="0.0" name="bottom"/>
  <anchor x="390.0" y="600.0" name="top"/>
  <outline>
    <contour>
      <point x="404.0" y="-14.0" type="curve" smooth="yes"/>
      <point x="570.5" y="-14.0"/>
      <point x="704.5" y="127.0"/>
      <point x="704.5" y="300.0" type="curve" smooth="yes"/>
      <point x="704.5" y="473.0"/>
      <point x="570.5" y="614.0"/>
      <point x="404.0" y="614.0" type="curve" smooth="yes"/>
      <point x="363.25" y="614.0"/>
      <point x="325.0" y="605.5"/>
      <point x="291.0" y="590.75" type="curve"/>
      <point x="291.0" y="445.25" type="line"/>
      <point x="317.75" y="463.75"/>
      <point x="350.0" y="474.75"/>
      <point x="385.5" y="474.75" type="curve" smooth="yes"/>
      <point x="480.0" y="474.75"/>
      <point x="556.0" y="396.5"/>
      <point x="556.0" y="300.0" type="curve" smooth="yes"/>
      <point x="556.0" y="203.5"/>
      <point x="480.0" y="125.25"/>
      <point x="385.5" y="125.25" type="curve" smooth="yes"/>
      <point x="350.0" y="125.25"/>
      <point x="317.75" y="136.25"/>
      <point x="291.0" y="154.75" type="curve"/>
      <point x="291.0" y="9.25" type="line"/>
      <point x="325.0" y="-5.5"/>
      <point x="363.25" y="-14.0"/>
    </contour>
    <contour>
      <point x="73.5" y="-300.0" type="line"/>
      <point x="231.0" y="-300.0" type="line"/>
      <point x="231.0" y="600.0" type="line"/>
      <point x="73.5" y="600.0" type="line"/>
    </contour>
  </outline>
</glyph>
<glyph name="q" format="2">
  <advance width="745.0"/>
  <unicode hex="0071"/>
  <outline>
    <contour>
      <point x="340.25" y="-14.0" type="curve" smooth="yes"/>
      <point x="384.75" y="-14.0"/>
      <point x="425.25" y="-4.0"/>
      <point x="461.5" y="13.0" type="curve"/>
      <point x="461.5" y="159.25" type="line"/>
      <point x="432.25" y="137.75"/>
      <point x="398.0" y="125.25"/>
      <point x="359.5" y="125.25" type="curve" smooth="yes"/>
      <point x="265.0" y="125.25"/>
      <point x="189.0" y="203.5"/>
      <point x="189.0" y="300.0" type="curve" smooth="yes"/>
      <point x="189.0" y="396.5"/>
      <point x="265.0" y="474.75"/>
      <point x="359.5" y="474.75" type="curve" smooth="yes"/>
      <point x="398.0" y="474.75"/>
      <point x="432.25" y="462.25"/>
      <point x="461.5" y="440.75" type="curve"/>
      <point x="461.5" y="587.0" type="line"/>
      <point x="425.25" y="604.0"/>
      <point x="384.75" y="614.0"/>
      <point x="340.25" y="614.0" type="curve" smooth="yes"/>
      <point x="174.5" y="614.0"/>
      <point x="40.5" y="473.0"/>
      <point x="40.5" y="300.0" type="curve" smooth="yes"/>
      <point x="40.5" y="127.0"/>
      <point x="174.5" y="-14.0"/>
    </contour>
    <contour>
      <point x="521.5" y="-300.0" type="line"/>
      <point x="671.5" y="-300.0" type="line"/>
      <point x="671.5" y="600.0" type="line"/>
      <point x="521.5" y="600.0" type="line"/>
    </contour>
  </outline>
</glyph>
<glyph name="s" format="2">
  <advance width="525.0"/>
  <unicode hex="0073"/>
  <anchor x="262.5" y="0.0" name="bottom"/>
  <anchor x="265.5" y="600.0" name="top"/>
  <outline>
    <contour>
      <point x="300.75" y="-15.0" type="line"/>
      <point x="411.25" y="-0.75"/>
      <point x="484.5" y="73.25"/>
      <point x="484.5" y="175.0" type="curve" smooth="yes"/>
      <point x="484.5" y="296.0"/>
      <point x="388.5" y="333.25"/>
      <point x="326.5" y="356.25" type="curve" smooth="yes"/>
      <point x="247.75" y="385.75" type="line" smooth="yes"/>
      <point x="211.5" y="399.5"/>
      <point x="197.25" y="418.75"/>
      <point x="197.25" y="440.25" type="curve" smooth="yes"/>
      <point x="197.25" y="462.0"/>
      <point x="212.0" y="481.75"/>
      <point x="240.75" y="488.5" type="curve"/>
      <point x="240.75" y="616.75" type="line"/>
      <point x="124.75" y="604.0"/>
      <point x="57.75" y="521.25"/>
      <point x="57.75" y="428.0" type="curve" smooth="yes"/>
      <point x="57.75" y="315.0"/>
      <point x="151.0" y="276.0"/>
      <point x="205.0" y="255.25" type="curve" smooth="yes"/>
      <point x="288.25" y="223.5" type="line" smooth="yes"/>
      <point x="313.0" y="214.25"/>
      <point x="345.0" y="201.0"/>
      <point x="345.0" y="164.75" type="curve" smooth="yes"/>
      <point x="345.0" y="140.75"/>
      <point x="330.75" y="120.25"/>
      <point x="300.75" y="112.5" type="curve"/>
    </contour>
    <contour>
      <point x="240.75" y="-17.75" type="curve"/>
      <point x="240.75" y="110.5" type="line"/>
      <point x="178.5" y="120.25"/>
      <point x="119.5" y="161.0"/>
      <point x="86.75" y="209.0" type="curve"/>
      <point x="47.0" y="56.5" type="line"/>
      <point x="90.75" y="12.75"/>
      <point x="168.5" y="-13.75"/>
    </contour>
    <contour>
      <point x="430.0" y="399.25" type="curve"/>
      <point x="467.5" y="547.25" type="line"/>
      <point x="435.0" y="581.5"/>
      <point x="370.0" y="610.0"/>
      <point x="300.75" y="616.75" type="curve"/>
      <point x="300.75" y="487.5" type="line"/>
      <point x="347.5" y="477.0"/>
      <point x="395.75" y="445.5"/>
    </contour>
  </outline>
</glyph>
<glyph name="t" format="2">
  <advance width="450.0"/>
  <unicode hex="0074"/>
  <anchor x="220.0" y="0.0" name="bottom"/>
  <anchor x="220.0" y="300.0" name="center"/>
  <anchor x="220.0" y="800.0" name="top"/>
  <anchor x="294.0" y="1020.0" name="topright"/>
  <outline>
    <contour>
      <point x="25.5" y="474.0" type="line"/>
      <point x="424.5" y="474.0" type="line"/>
      <point x="424.5" y="600.0" type="line"/>
      <point x="295.75" y="600.0" type="line"/>
      <point x="295.75" y="800.0" type="line"/>
      <point x="144.25" y="800.0" type="line"/>
      <point x="144.25" y="600.0" type="line"/>
      <point x="25.5" y="600.0" type="line"/>
    </contour>
    <contour>
      <point x="141.25" y="0.0" type="line"/>
      <point x="298.75" y="0.0" type="line"/>
      <point x="298.75" y="420.0" type="line"/>
      <point x="141.25" y="420.0" type="line"/>
    </contour>
  </outline>
</glyph>
<glyph name="w" format="2">
  <advance width="1000.0"/>
  <unicode hex="0077"/>
  <anchor x="500.0" y="0.0" name="bottom"/>
  <anchor x="504.0" y="600.0" name="top"/>
  <outline>
    <contour>
      <point x="692.5" y="-30.0" type="line"/>
      <point x="759.75" y="111.25" type="line"/>
      <point x="504.0" y="622.0" type="line"/>
      <point x="368.0" y="340.5" type="line"/>
      <point x="435.5" y="197.5" type="line"/>
      <point x="500.0" y="332.0" type="line"/>
    </contour>
    <contour>
      <point x="307.5" y="-30.0" type="line"/>
      <point x="399.5" y="132.75" type="line"/>
      <point x="178.5" y="600.0" type="line"/>
      <point x="7.5" y="600.0" type="line"/>
    </contour>
    <contour>
      <point x="791.75" y="178.5" type="line"/>
      <point x="992.5" y="600.0" type="line"/>
      <point x="829.5" y="600.0" type="line"/>
      <point x="708.25" y="344.0" type="line"/>
    </contour>
  </outline>
</glyph>
<glyph name="x" format="2">
  <advance width="630.0"/>
  <unicode hex="0078"/>
  <outline>
    <contour>
      <point x="437.5" y="0.0" type="line"/>
      <point x="615.0" y="0.0" type="line"/>
      <point x="209.0" y="600.0" type="line"/>
      <point x="33.5" y="600.0" type="line"/>
    </contour>
    <contour>
      <point x="15.0" y="0.0" type="line"/>
      <point x="188.5" y="0.0" type="line"/>
      <point x="275.25" y="140.25" type="line"/>
      <point x="191.0" y="265.75" type="line"/>
    </contour>
    <contour>
      <point x="438.25" y="362.5" type="line"/>
      <point x="596.5" y="600.0" type="line"/>
      <point x="423.0" y="600.0" type="line"/>
      <point x="353.0" y="487.0" type="line"/>
    </contour>
  </outline>
</glyph>
<glyph name="z" format="2">
  <advance width="530.0"/>
  <unicode hex="007A"/>
  <anchor x="257.0" y="0.0" name="bottom"/>
  <anchor x="265.0" y="300.0" name="center"/>
  <anchor x="274.0" y="600.0" name="top"/>
  <outline>
    <contour>
      <point x="26.5" y="0.0" type="line"/>
      <point x="180.0" y="0.0" type="line"/>
      <point x="503.5" y="600.0" type="line"/>
      <point x="351.25" y="600.0" type="line"/>
    </contour>
    <contour>
      <point x="246.25" y="0.0" type="line"/>
      <point x="486.0" y="0.0" type="line"/>
      <point x="486.0" y="132.0" type="line"/>
      <point x="317.25" y="132.0" type="line"/>
    </contour>
    <contour>
      <point x="46.0" y="468.0" type="line"/>
      <point x="213.75" y="468.0" type="line"/>
      <point x="285.0" y="600.0" type="line"/>
      <point x="46.0" y="600.0" type="line"/>
    </contour>
  </outline>
</glyph>
<glyph name="braceleft" format="2">
  <advance width="480.0"/>
  <unicode hex="007B"/>
  <outline>
    <contour>
      <point x="401.75" y="-186.0" type="curve"/>
      <point x="432.0" y="-64.5" type="line"/>
      <point x="344.25" y="-64.5"/>
      <point x="266.0" y="-43.0"/>
      <point x="266.0" y="76.25" type="curve" smooth="yes"/>
      <point x="266.0" y="130.0"/>
      <point x="282.5" y="190.25"/>
      <point x="282.5" y="245.0" type="curve" smooth="yes"/>
      <point x="282.5" y="378.0"/>
      <point x="185.25" y="411.75"/>
      <point x="86.25" y="411.75" type="curve"/>
      <point x="86.25" y="368.25" type="line"/>
      <point x="185.25" y="368.25"/>
      <point x="282.5" y="402.0"/>
      <point x="282.5" y="535.0" type="curve" smooth="yes"/>
      <point x="282.5" y="589.75"/>
      <point x="266.0" y="650.0"/>
      <point x="266.0" y="703.75" type="curve" smooth="yes"/>
      <point x="266.0" y="823.0"/>
      <point x="344.25" y="844.5"/>
      <point x="432.0" y="844.5" type="curve"/>
      <point x="401.75" y="966.0" type="line"/>
      <point x="257.75" y="966.0"/>
      <point x="128.0" y="888.5"/>
      <point x="128.0" y="718.75" type="curve" smooth="yes"/>
      <point x="128.0" y="659.0"/>
      <point x="144.5" y="600.25"/>
      <point x="144.5" y="547.0" type="curve" smooth="yes"/>
      <point x="144.5" y="460.5"/>
      <point x="101.25" y="426.0"/>
      <point x="28.5" y="390.0" type="curve"/>
      <point x="101.25" y="354.0"/>
      <point x="144.5" y="319.5"/>
      <point x="144.5" y="233.0" type="curve" smooth="yes"/>
      <point x="144.5" y="179.75"/>
      <point x="128.0" y="121.0"/>
      <point x="128.0" y="61.25" type="curve" smooth="yes"/>
      <point x="128.0" y="-108.5"/>
      <point x="257.75" y="-186.0"/>
    </contour>
  </outline>
</glyph>
<glyph name="asciitilde" format="2">
  <advance width="750.0"/>
  <unicode hex="007E"/>
  <outline>
    <contour>
      <point x="99.75" y="322.5" type="line"/>
      <point x="128.25" y="385.75"/>
      <point x="171.0" y="426.0"/>
      <point x="230.5" y="426.0" type="curve" smooth="yes"/>
      <point x="316.0" y="426.0"/>
      <point x="397.75" y="342.0"/>
      <point x="511.25" y="342.0" type="curve" smooth="yes"/>
      <point x="594.5" y="342.0"/>
      <point x="669.0" y="387.75"/>
      <point x="710.25" y="466.0" type="curve"/>
      <point x="645.0" y="577.5" type="line"/>
      <point x="616.5" y="514.25"/>
      <point x="573.75" y="474.0"/>
      <point x="514.25" y="474.0" type="curve" smooth="yes"/>
      <point x="428.75" y="474.0"/>
      <point x="347.0" y="558.0"/>
      <point x="233.5" y="558.0" type="curve" smooth="yes"/>
      <point x="150.25" y="558.0"/>
      <point x="75.75" y="512.25"/>
      <point x="34.5" y="434.0" type="curve"/>
    </contour>
  </outline>
</glyph>
<glyph name="exclamdown" format="2">
  <advance width="480.0"/>
  <unicode hex="00A1"/>
  <outline>
    <contour>
      <point x="150.0" y="-300.5" type="line"/>
      <point x="330.0" y="-300.5" type="line"/>
      <point x="301.5" y="277.0" type="line"/>
      <point x="178.5" y="277.0" type="line"/>
    </contour>
    <contour>
      <point x="240.0" y="422.5" type="curve" smooth="yes"/>
      <point x="294.75" y="422.5"/>
      <point x="337.5" y="465.25"/>
      <point x="337.5" y="520.0" type="curve" smooth="yes"/>
      <point x="337.5" y="574.75"/>
      <point x="294.75" y="617.5"/>
      <point x="240.0" y="617.5" type="curve" smooth="yes"/>
      <point x="185.0" y="617.5"/>
      <point x="142.5" y="574.75"/>
      <point x="142.5" y="520.0" type="curve" smooth="yes"/>
      <point x="142.5" y="465.25"/>
      <point x="185.0" y="422.5"/>
    </contour>
  </outline>
</glyph>
<glyph name="cent" format="2">
  <advance width="750.0"/>
  <unicode hex="00A2"/>
  <outline>
    <contour>
      <point x="101.5" y="480.0" type="curve"/>
      <point x="256.25" y="480.0" type="line"/>
      <point x="269.75" y="563.0"/>
      <point x="339.25" y="625.5"/>
      <point x="428.0" y="625.5" type="curve" smooth="yes"/>
      <point x="504.75" y="625.5"/>
      <point x="565.25" y="576.75"/>
      <point x="598.5" y="519.5" type="curve"/>
      <point x="640.5" y="686.25" type="line"/>
      <point x="582.75" y="738.75"/>
      <point x="507.0" y="768.0"/>
      <point x="423.0" y="768.0" type="curve" smooth="yes"/>
      <point x="254.75" y="768.0"/>
      <point x="117.5" y="641.75"/>
    </contour>
    <contour>
      <point x="369.0" y="0.0" type="line"/>
      <point x="471.0" y="0.0" type="line"/>
      <point x="471.0" y="180.0" type="line"/>
      <point x="369.0" y="180.0" type="line"/>
    </contour>
    <contour>
      <point x="423.0" y="132.0" type="curve" smooth="yes"/>
      <point x="507.0" y="132.0"/>
      <point x="582.75" y="161.25"/>
      <point x="640.5" y="213.75" type="curve"/>
      <point x="598.5" y="380.5" type="line"/>
      <point x="565.25" y="322.0"/>
      <point x="504.75" y="274.5"/>
      <point x="428.0" y="274.5" type="curve" smooth="yes"/>
      <point x="339.25" y="274.5"/>
      <point x="269.75" y="337.0"/>
      <point x="256.25" y="420.0" type="curve"/>
      <point x="101.5" y="420.0" type="line"/>
      <point x="117.5" y="258.25"/>
      <point x="254.75" y="132.0"/>
    </contour>
    <contour>
      <point x="369.0" y="720.0" type="line"/>
      <point x="471.0" y="720.0" type="line"/>
      <point x="471.0" y="870.0" type="line"/>
      <point x="369.0" y="870.0" type="line"/>
    </contour>
  </outline>
</glyph>
<glyph name="sterling" format="2">
  <advance width="750.0"/>
  <unicode hex="00A3"/>
  <outline>
    <contour>
      <point x="203.75" y="442.5" type="curve"/>
      <point x="356.0" y="442.5" type="line"/>
      <point x="346.0" y="495.0"/>
      <point x="337.0" y="546.5"/>
      <point x="337.0" y="589.25" type="curve" smooth="yes"/>
      <point x="337.0" y="681.75"/>
      <point x="373.75" y="744.75"/>
      <point x="432.0" y="767.25" type="curve"/>
      <point x="432.0" y="915.75" type="line"/>
      <point x="280.25" y="897.25"/>
      <point x="184.0" y="775.0"/>
      <point x="184.0" y="602.75" type="curve" smooth="yes"/>
      <point x="184.0" y="551.75"/>
      <point x="193.25" y="497.5"/>
    </contour>
    <contour>
      <point x="133.0" y="0.0" type="curve"/>
      <point x="302.25" y="0.0" type="line"/>
      <point x="371.25" y="140.75" type="line" smooth="yes"/>
      <point x="383.0" y="164.0"/>
      <point x="388.5" y="193.0"/>
      <point x="388.5" y="228.25" type="curve" smooth="yes"/>
      <point x="388.5" y="262.5"/>
      <point x="383.25" y="302.75"/>
      <point x="375.5" y="345.0" type="curve"/>
      <point x="225.25" y="345.0" type="line"/>
      <point x="234.75" y="297.0"/>
      <point x="241.5" y="252.25"/>
      <point x="241.5" y="212.25" type="curve" smooth="yes"/>
      <point x="241.5" y="120.75"/>
      <point x="200.75" y="71.25"/>
    </contour>
    <contour>
      <point x="374.25" y="0.0" type="line"/>
      <point x="673.5" y="0.0" type="line"/>
      <point x="673.5" y="141.0" type="line"/>
      <point x="443.25" y="141.0" type="line"/>
    </contour>
    <contour>
      <point x="90.0" y="399.0" type="line"/>
      <point x="600.0" y="399.0" type="line"/>
      <point x="600.0" y="501.0" type="line"/>
      <point x="90.0" y="501.0" type="line"/>
    </contour>
    <contour>
      <point x="637.0" y="669.5" type="curve"/>
      <point x="679.25" y="836.75" type="line"/>
      <point x="626.5" y="886.25"/>
      <point x="565.0" y="913.25"/>
      <point x="492.0" y="917.25" type="curve"/>
      <point x="492.0" y="775.25" type="line"/>
      <point x="556.0" y="769.75"/>
      <point x="606.25" y="723.5"/>
    </contour>
  </outline>
</glyph>
<glyph name="currency" format="2">
  <advance width="750.0"/>
  <unicode hex="00A4"/>
  <outline>
    <contour>
      <point x="627.0" y="108.0" type="line"/>
      <point x="717.75" y="198.75" type="line"/>
      <point x="641.5" y="275.0" type="line"/>
      <point x="675.5" y="324.75"/>
      <point x="695.5" y="385.25"/>
      <point x="695.5" y="450.0" type="curve" smooth="yes"/>
      <point x="695.5" y="515.75"/>
      <point x="675.25" y="577.0"/>
      <point x="640.5" y="627.5" type="curve"/>
      <point x="717.0" y="704.0" type="line"/>
      <point x="629.0" y="792.0" type="line"/>
      <point x="551.75" y="714.75" type="line"/>
      <point x="509.0" y="742.5"/>
      <point x="458.5" y="760.25"/>
      <point x="405.0" y="765.5" type="curve"/>
      <point x="405.0" y="621.25" type="line"/>
      <point x="485.75" y="607.0"/>
      <point x="547.0" y="535.75"/>
      <point x="547.0" y="450.0" type="curve" smooth="yes"/>
      <point x="547.0" y="364.25"/>
      <point x="485.75" y="293.0"/>
      <point x="405.0" y="278.75" type="curve"/>
      <point x="405.0" y="134.5" type="line"/>
      <point x="458.5" y="139.75"/>
      <point x="507.75" y="157.5"/>
      <point x="549.75" y="185.25" type="curve"/>
    </contour>
    <contour>
      <point x="121.0" y="108.0" type="line"/>
      <point x="198.25" y="185.25" type="line"/>
      <point x="241.0" y="157.75"/>
      <point x="291.25" y="139.75"/>
      <point x="345.0" y="134.5" type="curve"/>
      <point x="345.0" y="278.75" type="line"/>
      <point x="264.0" y="293.0"/>
      <point x="203.0" y="364.25"/>
      <point x="203.0" y="450.0" type="curve" smooth="yes"/>
      <point x="203.0" y="535.75"/>
      <point x="264.0" y="607.0"/>
      <point x="345.0" y="621.25" type="curve"/>
      <point x="345.0" y="765.5" type="line"/>
      <point x="292.25" y="760.25"/>
      <point x="242.75" y="742.25"/>
      <point x="201.0" y="715.5" type="curve"/>
      <point x="123.75" y="792.75" type="line"/>
      <point x="33.0" y="702.0" type="line"/>
      <point x="108.5" y="626.5" type="line"/>
      <point x="74.5" y="576.0"/>
      <point x="54.5" y="515.5"/>
      <point x="54.5" y="450.0" type="curve" smooth="yes"/>
      <point x="54.5" y="384.25"/>
      <point x="74.75" y="323.0"/>
      <point x="109.5" y="272.5" type="curve"/>
      <point x="33.0" y="196.0" type="line"/>
    </contour>
  </outline>
</glyph>
<glyph name="yen" format="2">
  <advance width="750.0"/>
  <unicode hex="00A5"/>
  <anchor x="53.0" y="900.0" name="topleft"/>
  <outline>
    <contour>
      <point x="246.5" y="513.25" type="line"/>
      <point x="503.5" y="513.25" type="line"/>
      <point x="718.5" y="900.0" type="line"/>
      <point x="546.0" y="900.75" type="line"/>
      <point x="428.5" y="683.0" type="line" smooth="yes"/>
      <point x="407.0" y="643.75"/>
      <point x="388.0" y="609.0"/>
      <point x="366.5" y="545.0" type="curve"/>
      <point x="392.75" y="545.0" type="line"/>
      <point x="373.5" y="608.0"/>
      <point x="353.0" y="644.75"/>
      <point x="332.5" y="683.0" type="curve" smooth="yes"/>
      <point x="216.0" y="900.0" type="line"/>
      <point x="31.5" y="900.0" type="line"/>
    </contour>
    <contour>
      <point x="293.25" y="0.0" type="line"/>
      <point x="456.75" y="0.0" type="line"/>
      <point x="456.75" y="246.0" type="line"/>
      <point x="293.25" y="246.0" type="line"/>
    </contour>
    <contour>
      <point x="76.5" y="300.0" type="line"/>
      <point x="673.5" y="300.0" type="line"/>
      <point x="673.5" y="402.0" type="line"/>
      <point x="76.5" y="402.0" type="line"/>
    </contour>
    <contour>
      <point x="76.5" y="498.0" type="line"/>
      <point x="673.5" y="498.0" type="line"/>
      <point x="673.5" y="600.0" type="line"/>
      <point x="451.0" y="600.0" type="line"/>
      <point x="383.75" y="537.75" type="line"/>
      <point x="303.0" y="600.0" type="line"/>
      <point x="76.5" y="600.0" type="line"/>
    </contour>
  </outline>
</glyph>
<glyph name="registered" format="2">
  <advance width="600.0"/>
  <unicode hex="00AE"/>
  <outline>
    <contour>
      <point x="330.0" y="397.25" type="line"/>
      <point x="466.5" y="410.5"/>
      <point x="573.0" y="523.25"/>
      <point x="573.0" y="660.0" type="curve" smooth="yes"/>
      <point x="573.0" y="796.75"/>
      <point x="466.5" y="909.5"/>
      <point x="330.0" y="922.75" type="curve"/>
      <point x="330.0" y="848.5" type="line"/>
      <point x="422.0" y="835.0"/>
      <point x="493.5" y="755.25"/>
      <point x="493.5" y="660.0" type="curve" smooth="yes"/>
      <point x="493.5" y="564.75"/>
      <point x="422.0" y="485.0"/>
      <point x="330.0" y="471.5" type="curve"/>
    </contour>
    <contour>
      <point x="270.0" y="397.25" type="curve"/>
      <point x="270.0" y="471.5" type="line"/>
      <point x="177.25" y="485.75"/>
      <point x="106.5" y="564.75"/>
      <point x="106.5" y="660.0" type="curve" smooth="yes"/>
      <point x="106.5" y="755.25"/>
      <point x="177.25" y="834.25"/>
      <point x="270.0" y="848.5" type="curve"/>
      <point x="270.0" y="922.75" type="line"/>
      <point x="132.75" y="908.75"/>
      <point x="27.0" y="796.75"/>
      <point x="27.0" y="660.0" type="curve" smooth="yes"/>
      <point x="27.0" y="523.25"/>
      <point x="132.75" y="411.25"/>
    </contour>
    <contour>
      <point x="204.5" y="546.0" type="line"/>
      <point x="273.5" y="546.0" type="line"/>
      <point x="273.5" y="786.0" type="line"/>
      <point x="204.5" y="786.0" type="line"/>
    </contour>
    <contour>
      <point x="343.0" y="546.0" type="line"/>
      <point x="421.0" y="546.0" type="line"/>
      <point x="364.25" y="626.75" type="line"/>
      <point x="392.5" y="640.75"/>
      <point x="409.5" y="666.75"/>
      <point x="409.5" y="700.0" type="curve" smooth="yes"/>
      <point x="409.5" y="743.75"/>
      <point x="377.25" y="781.25"/>
      <point x="323.0" y="785.75" type="curve"/>
      <point x="323.0" y="726.5" type="line"/>
      <point x="334.0" y="721.5"/>
      <point x="340.5" y="712.0"/>
      <point x="340.5" y="699.0" type="curve" smooth="yes"/>
      <point x="340.5" y="687.25"/>
      <point x="335.0" y="677.5"/>
      <point x="323.0" y="671.5" type="curve"/>
      <point x="323.0" y="575.25" type="line"/>
    </contour>
  </outline>
</glyph>
<glyph name="plusminus" format="2">
  <advance width="750.0"/>
  <unicode hex="00B1"/>
  <outline>
    <contour>
      <point x="76.5" y="448.5" type="line"/>
      <point x="673.5" y="448.5" type="line"/>
      <point x="673.5" y="571.5" type="line"/>
      <point x="76.5" y="571.5" type="line"/>
    </contour>
    <contour>
      <point x="76.5" y="56.0" type="line"/>
      <point x="673.5" y="56.0" type="line"/>
      <point x="673.5" y="166.0" type="line"/>
      <point x="76.5" y="166.0" type="line"/>
    </contour>
    <contour>
      <point x="310.5" y="225.0" type="line"/>
      <point x="439.5" y="225.0" type="line"/>
      <point x="439.5" y="808.5" type="line"/>
      <point x="310.5" y="808.5" type="line"/>
    </contour>
  </outline>
</glyph>
<glyph name="ordmasculine" format="2">
  <advance width="480.0"/>
  <unicode hex="00BA"/>
  <outline>
    <contour>
      <point x="268.0" y="405.5" type="line"/>
      <point x="369.0" y="419.5"/>
      <point x="444.0" y="501.75"/>
      <point x="444.0" y="600.0" type="curve" smooth="yes"/>
      <point x="444.0" y="698.25"/>
      <point x="369.0" y="780.5"/>
      <point x="268.0" y="794.5" type="curve"/>
      <point x="268.0" y="683.75" type="line"/>
      <point x="305.25" y="671.5"/>
      <point x="330.75" y="639.0"/>
      <point x="330.75" y="600.0" type="curve" smooth="yes"/>
      <point x="330.75" y="561.0"/>
      <point x="305.25" y="528.5"/>
      <point x="268.0" y="516.25" type="curve"/>
    </contour>
    <contour>
      <point x="212.0" y="405.5" type="curve"/>
      <point x="212.0" y="516.25" type="line"/>
      <point x="173.75" y="528.5"/>
      <point x="149.25" y="561.0"/>
      <point x="149.25" y="600.0" type="curve" smooth="yes"/>
      <point x="149.25" y="639.0"/>
      <point x="173.75" y="671.5"/>
      <point x="212.0" y="683.75" type="curve"/>
      <point x="212.0" y="794.5" type="line"/>
      <point x="111.0" y="780.5"/>
      <point x="36.0" y="698.25"/>
      <point x="36.0" y="600.0" type="curve" smooth="yes"/>
      <point x="36.0" y="501.75"/>
      <point x="111.0" y="419.5"/>
    </contour>
  </outline>
</glyph>
<glyph name="questiondown" format="2">
  <advance width="480.0"/>
  <unicode hex="00BF"/>
  <outline>
    <contour>
      <point x="169.5" y="-305.25" type="curve"/>
      <point x="169.5" y="-84.75" type="line" smooth="yes"/>
      <point x="169.5" y="21.5"/>
      <point x="301.5" y="81.75"/>
      <point x="301.5" y="276.0" type="curve"/>
      <point x="178.5" y="276.0" type="line"/>
      <point x="161.25" y="127.25"/>
      <point x="21.0" y="55.5"/>
      <point x="21.0" y="-101.25" type="curve" smooth="yes"/>
      <point x="21.0" y="-200.0"/>
      <point x="76.5" y="-277.5"/>
    </contour>
    <contour>
      <point x="258.25" y="-318.0" type="curve" smooth="yes"/>
      <point x="313.0" y="-318.0"/>
      <point x="364.75" y="-299.25"/>
      <point x="408.0" y="-267.25" type="curve"/>
      <point x="408.0" y="-104.25" type="line"/>
      <point x="378.5" y="-140.5"/>
      <point x="332.25" y="-176.0"/>
      <point x="272.0" y="-176.0" type="curve" smooth="yes"/>
      <point x="254.25" y="-176.0"/>
      <point x="238.5" y="-173.25"/>
      <point x="225.0" y="-168.0" type="curve"/>
      <point x="225.0" y="-315.25" type="line"/>
      <point x="237.75" y="-317.5"/>
      <point x="246.75" y="-318.0"/>
    </contour>
    <contour>
      <point x="240.0" y="421.5" type="curve" smooth="yes"/>
      <point x="294.75" y="421.5"/>
      <point x="337.5" y="464.25"/>
      <point x="337.5" y="519.0" type="curve" smooth="yes"/>
      <point x="337.5" y="573.75"/>
      <point x="294.75" y="616.5"/>
      <point x="240.0" y="616.5" type="curve" smooth="yes"/>
      <point x="185.0" y="616.5"/>
      <point x="142.5" y="573.75"/>
      <point x="142.5" y="519.0" type="curve" smooth="yes"/>
      <point x="142.5" y="464.25"/>
      <point x="185.0" y="421.5"/>
    </contour>
  </outline>
</glyph>
<glyph name="AE" format="2">
  <advance width="1035.0"/>
  <unicode hex="00C6"/>
  <anchor x="759.25" y="0.0" name="bottom"/>
  <anchor x="945.0" y="0.0" name="ogonek"/>
  <anchor x="526.82875" y="900.0" name="top"/>
  <anchor x="127.5" y="720.0" name="top-vertical"/>
  <anchor x="375.57875" y="900.0" name="topleft"/>
  <outline>
    <contour>
      <point x="627.0" y="0.0" type="line"/>
      <point x="786.25" y="0.0" type="line"/>
      <point x="485.5" y="900.0" type="line"/>
      <point x="394.0" y="900.0" type="line"/>
      <point x="356.0" y="811.25" type="line"/>
    </contour>
    <contour>
      <point x="13.5" y="0.0" type="line"/>
      <point x="173.5" y="0.0" type="line"/>
      <point x="388.75" y="522.5" type="line"/>
      <point x="320.25" y="726.5" type="line"/>
    </contour>
    <contour>
      <point x="315.0" y="186.75" type="line"/>
      <point x="615.25" y="186.75" type="line"/>
      <point x="567.5" y="318.5" type="line"/>
      <point x="369.5" y="318.5" type="line"/>
    </contour>
    <contour>
      <point x="846.0" y="0.0" type="line"/>
      <point x="1009.5" y="0.0" type="line"/>
      <point x="1009.5" y="147.0" type="line"/>
      <point x="797.0" y="147.0" type="line"/>
    </contour>
    <contour>
      <point x="689.75" y="468.0" type="line"/>
      <point x="835.5" y="468.0" type="line"/>
      <point x="835.5" y="606.0" type="line"/>
      <point x="643.75" y="606.0" type="line"/>
    </contour>
    <contour>
      <point x="593.75" y="757.5" type="line"/>
      <point x="805.5" y="757.5" type="line"/>
      <point x="805.5" y="900.0" type="line"/>
      <point x="545.5" y="900.0" type="line"/>
    </contour>
  </outline>
</glyph>
<glyph name="Eth" format="2">
  <advance width="945.0"/>
  <unicode hex="00D0"/>
  <outline>
    <contour>
      <point x="322.5" y="0.0" type="line"/>
      <point x="406.75" y="0.0" type="line" smooth="yes"/>
      <point x="703.5" y="0.0"/>
      <point x="889.5" y="210.75"/>
      <point x="889.5" y="450.0" type="curve" smooth="yes"/>
      <point x="889.5" y="689.25"/>
      <point x="703.5" y="900.0"/>
      <point x="406.75" y="900.0" type="curve" smooth="yes"/>
      <point x="322.5" y="900.0" type="line"/>
      <point x="322.5" y="753.0" type="line"/>
      <point x="391.75" y="753.0" type="line" smooth="yes"/>
      <point x="612.25" y="753.0"/>
      <point x="719.0" y="607.5"/>
      <point x="719.0" y="450.0" type="curve" smooth="yes"/>
      <point x="719.0" y="292.5"/>
      <point x="612.25" y="147.0"/>
      <point x="391.75" y="147.0" type="curve" smooth="yes"/>
      <point x="322.5" y="147.0" type="line"/>
    </contour>
    <contour>
      <point x="103.5" y="0.0" type="line"/>
      <point x="262.5" y="0.0" type="line"/>
      <point x="262.5" y="368.25" type="line"/>
      <point x="103.5" y="368.25" type="line"/>
    </contour>
    <contour>
      <point x="15.0" y="422.25" type="line"/>
      <point x="495.0" y="422.25" type="line"/>
      <point x="495.0" y="537.75" type="line"/>
      <point x="262.5" y="537.75" type="line"/>
      <point x="262.5" y="900.0" type="line"/>
      <point x="103.5" y="900.0" type="line"/>
      <point x="103.5" y="537.75" type="line"/>
      <point x="15.0" y="537.75" type="line"/>
    </contour>
  </outline>
</glyph>
<glyph name="Oslash" format="2">
  <advance width="1060.0"/>
  <unicode hex="00D8"/>
  <outline>
    <contour>
      <point x="207.75" y="-30.25" type="line"/>
      <point x="936.75" y="846.75" type="line"/>
      <point x="852.25" y="916.25" type="line"/>
      <point x="123.25" y="39.25" type="line"/>
    </contour>
    <contour>
      <point x="530.0" y="-18.0" type="curve" smooth="yes"/>
      <point x="792.25" y="-18.0"/>
      <point x="1004.5" y="191.0"/>
      <point x="1004.5" y="450.0" type="curve" smooth="yes"/>
      <point x="1004.5" y="552.75"/>
      <point x="971.25" y="647.25"/>
      <point x="914.75" y="724.5" type="curve"/>
      <point x="801.75" y="589.25" type="line"/>
      <point x="822.5" y="547.75"/>
      <point x="834.0" y="500.25"/>
      <point x="834.0" y="450.0" type="curve" smooth="yes"/>
      <point x="834.0" y="278.0"/>
      <point x="701.0" y="139.5"/>
      <point x="530.0" y="139.5" type="curve" smooth="yes"/>
      <point x="456.25" y="139.5"/>
      <point x="389.75" y="165.0"/>
      <point x="338.0" y="208.0" type="curve"/>
      <point x="233.75" y="84.0" type="line"/>
      <point x="315.5" y="20.0"/>
      <point x="418.25" y="-18.0"/>
    </contour>
    <contour>
      <point x="150.5" y="168.5" type="curve"/>
      <point x="261.5" y="302.75" type="line"/>
      <point x="239.25" y="346.0"/>
      <point x="226.0" y="396.75"/>
      <point x="226.0" y="450.0" type="curve" smooth="yes"/>
      <point x="226.0" y="622.0"/>
      <point x="359.0" y="760.5"/>
      <point x="530.0" y="760.5" type="curve" smooth="yes"/>
      <point x="607.25" y="760.5"/>
      <point x="676.25" y="732.75"/>
      <point x="729.25" y="686.0" type="curve"/>
      <point x="833.25" y="810.0" type="line"/>
      <point x="751.25" y="877.5"/>
      <point x="645.25" y="918.0"/>
      <point x="530.0" y="918.0" type="curve" smooth="yes"/>
      <point x="267.75" y="918.0"/>
      <point x="55.5" y="709.0"/>
      <point x="55.5" y="450.0" type="curve" smooth="yes"/>
      <point x="55.5" y="344.25"/>
      <point x="91.0" y="246.75"/>
    </contour>
  </outline>
</glyph>
<glyph name="divide" format="2">
  <advance width="750.0"/>
  <unicode hex="00F7"/>
  <outline>
    <contour>
      <point x="52.5" y="384.75" type="line"/>
      <point x="697.5" y="384.75" type="line"/>
      <point x="697.5" y="515.25" type="line"/>
      <point x="52.5" y="515.25" type="line"/>
    </contour>
    <contour>
      <point x="375.0" y="126.0" type="curve" smooth="yes"/>
      <point x="427.75" y="126.0"/>
      <point x="466.5" y="165.75"/>
      <point x="466.5" y="217.5" type="curve" smooth="yes"/>
      <point x="466.5" y="269.25"/>
      <point x="427.75" y="309.0"/>
      <point x="375.0" y="309.0" type="curve" smooth="yes"/>
      <point x="323.25" y="309.0"/>
      <point x="283.5" y="269.25"/>
      <point x="283.5" y="217.5" type="curve" smooth="yes"/>
      <point x="283.5" y="165.75"/>
      <point x="323.25" y="126.0"/>
    </contour>
    <contour>
      <point x="375.0" y="591.0" type="curve" smooth="yes"/>
      <point x="427.75" y="591.0"/>
      <point x="466.5" y="630.75"/>
      <point x="466.5" y="682.5" type="curve" smooth="yes"/>
      <point x="466.5" y="734.25"/>
      <point x="427.75" y="774.0"/>
      <point x="375.0" y="774.0" type="curve" smooth="yes"/>
      <point x="323.25" y="774.0"/>
      <point x="283.5" y="734.25"/>
      <point x="283.5" y="682.5" type="curve" smooth="yes"/>
      <point x="283.5" y="630.75"/>
      <point x="323.25" y="591.0"/>
    </contour>
  </outline>
</glyph>
<glyph name="oslash" format="2">
  <advance width="725.0"/>
  <unicode hex="00F8"/>
  <anchor x="362.5" y="0.0" name="bottom"/>
  <anchor x="362.5" y="300.0" name="center"/>
  <anchor x="459.25" y="2.5" name="ogonek"/>
  <anchor x="362.5" y="600.0" name="top"/>
  <anchor x="591.75" y="600.0" name="topright"/>
  <outline>
    <contour>
      <point x="151.5" y="-23.25" type="line"/>
      <point x="640.5" y="558.75" type="line"/>
      <point x="567.5" y="622.25" type="line"/>
      <point x="78.5" y="40.25" type="line"/>
    </contour>
    <contour>
      <point x="362.5" y="-18.0" type="curve" smooth="yes"/>
      <point x="540.5" y="-18.0"/>
      <point x="684.5" y="124.0"/>
      <point x="684.5" y="300.0" type="curve" smooth="yes"/>
      <point x="684.5" y="363.5"/>
      <point x="666.0" y="421.75"/>
      <point x="634.5" y="471.0" type="curve"/>
      <point x="533.25" y="352.25" type="line"/>
      <point x="538.0" y="336.25"/>
      <point x="541.25" y="318.0"/>
      <point x="541.25" y="300.0" type="curve" smooth="yes"/>
      <point x="541.25" y="199.75"/>
      <point x="461.0" y="118.5"/>
      <point x="362.5" y="118.5" type="curve" smooth="yes"/>
      <point x="321.0" y="118.5"/>
      <point x="283.25" y="132.75"/>
      <point x="252.75" y="156.75" type="curve"/>
      <point x="164.25" y="49.25" type="line"/>
      <point x="218.5" y="7.5"/>
      <point x="287.75" y="-18.0"/>
    </contour>
    <contour>
      <point x="89.25" y="132.0" type="curve"/>
      <point x="190.75" y="251.75" type="line"/>
      <point x="186.25" y="267.5"/>
      <point x="183.75" y="283.25"/>
      <point x="183.75" y="300.0" type="curve" smooth="yes"/>
      <point x="183.75" y="400.25"/>
      <point x="263.0" y="481.5"/>
      <point x="362.5" y="481.5" type="curve" smooth="yes"/>
      <point x="405.0" y="481.5"/>
      <point x="444.5" y="465.75"/>
      <point x="475.5" y="440.25" type="curve"/>
      <point x="565.0" y="547.5" type="line"/>
      <point x="509.5" y="591.5"/>
      <point x="439.5" y="618.0"/>
      <point x="362.5" y="618.0" type="curve" smooth="yes"/>
      <point x="184.5" y="618.0"/>
      <point x="40.5" y="476.0"/>
      <point x="40.5" y="300.0" type="curve" smooth="yes"/>
      <point x="40.5" y="238.5"/>
      <point x="58.0" y="180.25"/>
    </contour>
  </outline>
</glyph>
<glyph name="dcroat" format="2">
  <advance width="745.0"/>
  <unicode hex="0111"/>
  <outline>
    <contour>
      <point x="341.0" y="-14.0" type="curve" smooth="yes"/>
      <point x="381.75" y="-14.0"/>
      <point x="420.0" y="-5.5"/>
      <point x="454.0" y="9.25" type="curve"/>
      <point x="454.0" y="154.75" type="line"/>
      <point x="426.25" y="136.25"/>
      <point x="394.25" y="125.25"/>
      <point x="359.5" y="125.25" type="curve" smooth="yes"/>
      <point x="265.0" y="125.25"/>
      <point x="189.0" y="203.5"/>
      <point x="189.0" y="300.0" type="curve" smooth="yes"/>
      <point x="189.0" y="396.5"/>
      <point x="265.0" y="474.75"/>
      <point x="359.5" y="474.75" type="curve" smooth="yes"/>
      <point x="394.25" y="474.75"/>
      <point x="427.0" y="463.75"/>
      <point x="454.0" y="445.25" type="curve"/>
      <point x="454.0" y="590.75" type="line"/>
      <point x="420.0" y="605.5"/>
      <point x="381.75" y="614.0"/>
      <point x="341.0" y="614.0" type="curve" smooth="yes"/>
      <point x="174.5" y="614.0"/>
      <point x="40.5" y="473.0"/>
      <point x="40.5" y="300.0" type="curve" smooth="yes"/>
      <point x="40.5" y="127.0"/>
      <point x="174.5" y="-14.0"/>
    </contour>
    <contour>
      <point x="514.0" y="0.0" type="line"/>
      <point x="671.5" y="0.0" type="line"/>
      <point x="671.5" y="677.0" type="line"/>
      <point x="514.0" y="677.0" type="line"/>
    </contour>
    <contour>
      <point x="323.75" y="731.0" type="line"/>
      <point x="730.75" y="731.0" type="line"/>
      <point x="730.75" y="829.0" type="line"/>
      <point x="671.5" y="829.0" type="line"/>
      <point x="671.5" y="960.0" type="line"/>
      <point x="524.5" y="960.0" type="line"/>
      <point x="524.5" y="829.0" type="line"/>
      <point x="323.75" y="829.0" type="line"/>
    </contour>
  </outline>
</glyph>
<glyph name="eogonek" format="2">
  <advance width="695.0"/>
  <unicode hex="0119"/>
  <anchor x="355.0" y="600.0" name="top"/>
  <outline>
    <contour>
      <point x="344.5" y="-17.0" type="curve"/>
      <point x="344.5" y="117.5" type="line"/>
      <point x="249.25" y="131.75"/>
      <point x="187.5" y="206.0"/>
      <point x="187.5" y="302.0" type="curve"/>
      <point x="179.25" y="302.0" type="line"/>
      <point x="179.25" y="400.5"/>
      <point x="237.75" y="474.0"/>
      <point x="321.25" y="488.5" type="curve"/>
      <point x="321.25" y="617.0" type="line"/>
      <point x="162.25" y="602.0"/>
      <point x="40.5" y="473.5"/>
      <point x="40.5" y="306.0" type="curve" smooth="yes"/>
      <point x="40.5" y="128.75"/>
      <point x="164.25" y="-3.75"/>
    </contour>
    <contour>
      <point x="288.0" y="254.25" type="curve" smooth="yes"/>
      <point x="660.5" y="254.25" type="line"/>
      <point x="660.5" y="311.0" type="line" smooth="yes"/>
      <point x="660.5" y="476.0"/>
      <point x="541.75" y="602.75"/>
      <point x="382.25" y="617.0" type="curve"/>
      <point x="382.25" y="488.5" type="line"/>
      <point x="466.0" y="473.5"/>
      <point x="521.75" y="402.0"/>
      <point x="521.75" y="303.5" type="curve"/>
      <point x="549.0" y="354.75" type="line"/>
      <point x="508.0" y="366.0"/>
      <point x="466.5" y="371.25"/>
      <point x="417.25" y="371.25" type="curve" smooth="yes"/>
      <point x="288.0" y="371.25" type="line" smooth="yes"/>
      <point x="238.5" y="371.25"/>
      <point x="192.5" y="363.25"/>
      <point x="143.0" y="351.25" type="curve"/>
      <point x="143.0" y="274.25" type="line"/>
      <point x="192.5" y="262.25"/>
      <point x="238.5" y="254.25"/>
    </contour>
    <contour>
      <point x="408.5" y="-17.0" type="line"/>
      <point x="479.25" y="-11.75"/>
      <point x="544.0" y="12.0"/>
      <point x="596.5" y="51.5" type="curve"/>
      <point x="560.5" y="199.25" type="line"/>
      <point x="526.25" y="157.0"/>
      <point x="473.25" y="124.0"/>
      <point x="408.5" y="116.75" type="curve"/>
    </contour>
    <contour>
      <point x="549.25" y="-316.5" type="curve"/>
      <point x="577.25" y="-197.25" type="line"/>
      <point x="530.0" y="-196.5"/>
      <point x="494.75" y="-173.25"/>
      <point x="494.75" y="-120.5" type="curve" smooth="yes"/>
      <point x="494.75" y="-90.25"/>
      <point x="506.5" y="-62.25"/>
      <point x="537.0" y="-19.75" type="curve"/>
      <point x="552.0" y="-36.75" type="line"/>
      <point x="494.75" y="-61.5"/>
      <point x="429.25" y="-74.0"/>
      <point x="362.25" y="-71.25" type="curve"/>
      <point x="392.75" y="-43.5" type="line"/>
      <point x="366.75" y="-82.25"/>
      <point x="357.25" y="-119.5"/>
      <point x="357.25" y="-153.0" type="curve" smooth="yes"/>
      <point x="357.25" y="-263.0"/>
      <point x="440.5" y="-316.5"/>
    </contour>
  </outline>
</glyph>
<glyph name="Hbar" format="2">
  <advance width="800.0"/>
  <unicode hex="0126"/>
  <anchor x="400.0" y="0.0" name="bottom"/>
  <anchor x="400.0" y="720.0" name="center"/>
  <anchor x="400.0" y="900.0" name="top"/>
  <anchor x="126.0" y="900.0" name="topleft"/>
  <outline>
    <contour>
      <point x="537.5" y="0.0" type="line"/>
      <point x="696.5" y="0.0" type="line"/>
      <point x="696.5" y="615.25" type="line"/>
      <point x="537.5" y="615.25" type="line"/>
      <point x="537.5" y="568.5" type="line"/>
      <point x="322.5" y="568.5" type="line"/>
      <point x="322.5" y="421.5" type="line"/>
      <point x="537.5" y="421.5" type="line"/>
    </contour>
    <contour>
      <point x="103.5" y="0.0" type="line"/>
      <point x="262.5" y="0.0" type="line"/>
      <point x="262.5" y="615.25" type="line"/>
      <point x="103.5" y="615.25" type="line"/>
    </contour>
    <contour>
      <point x="30.0" y="669.0" type="line"/>
      <point x="770.0" y="669.0" type="line"/>
      <point x="770.0" y="771.0" type="line"/>
      <point x="696.5" y="771.0" type="line"/>
      <point x="696.5" y="900.0" type="line"/>
      <point x="537.5" y="900.0" type="line"/>
      <point x="537.5" y="771.0" type="line"/>
      <point x="262.5" y="771.0" type="line"/>
      <point x="262.5" y="900.0" type="line"/>
      <point x="103.5" y="900.0" type="line"/>
      <point x="103.5" y="771.0" type="line"/>
      <point x="30.0" y="771.0" type="line"/>
    </contour>
  </outline>
</glyph>
<glyph name="hbar" format="2">
  <advance width="705.0"/>
  <unicode hex="0127"/>
  <outline>
    <contour>
      <point x="486.0" y="0.0" type="line"/>
      <point x="643.5" y="0.0" type="line"/>
      <point x="643.5" y="355.5" type="line" smooth="yes"/>
      <point x="643.5" y="522.25"/>
      <point x="527.25" y="618.0"/>
      <point x="400.25" y="618.0" type="curve" smooth="yes"/>
      <point x="360.5" y="618.0"/>
      <point x="323.75" y="608.75"/>
      <point x="291.0" y="591.0" type="curve"/>
      <point x="291.0" y="456.5" type="line"/>
      <point x="310.75" y="469.5"/>
      <point x="334.0" y="475.5"/>
      <point x="358.5" y="475.5" type="curve" smooth="yes"/>
      <point x="439.75" y="475.5"/>
      <point x="486.0" y="408.5"/>
      <point x="486.0" y="334.5" type="curve" smooth="yes"/>
    </contour>
    <contour>
      <point x="73.5" y="0.0" type="line"/>
      <point x="226.5" y="0.0" type="line"/>
      <point x="226.5" y="677.0" type="line"/>
      <point x="73.5" y="677.0" type="line"/>
    </contour>
    <contour>
      <point x="14.25" y="731.0" type="line"/>
      <point x="421.25" y="731.0" type="line"/>
      <point x="421.25" y="829.0" type="line"/>
      <point x="220.5" y="829.0" type="line"/>
      <point x="220.5" y="960.0" type="line"/>
      <point x="73.5" y="960.0" type="line"/>
      <point x="73.5" y="829.0" type="line"/>
      <point x="14.25" y="829.0" type="line"/>
    </contour>
  </outline>
</glyph>
<glyph name="Lslash" format="2">
  <advance width="630.0"/>
  <unicode hex="0141"/>
  <outline>
    <contour>
      <point x="63.0" y="308.5" type="line"/>
      <point x="529.5" y="578.5" type="line"/>
      <point x="477.0" y="669.5" type="line"/>
      <point x="301.5" y="567.25" type="line"/>
      <point x="301.5" y="900.0" type="line"/>
      <point x="133.5" y="900.0" type="line"/>
      <point x="133.5" y="471.25" type="line"/>
      <point x="10.5" y="399.5" type="line"/>
    </contour>
    <contour>
      <point x="133.5" y="0.0" type="line"/>
      <point x="301.5" y="0.0" type="line"/>
      <point x="301.5" y="377.75" type="line"/>
      <point x="133.5" y="282.0" type="line"/>
    </contour>
    <contour>
      <point x="361.5" y="0.0" type="line"/>
      <point x="582.0" y="0.0" type="line"/>
      <point x="582.0" y="147.0" type="line"/>
      <point x="361.5" y="147.0" type="line"/>
    </contour>
  </outline>
</glyph>
<glyph name="Eng" format="2">
  <advance width="990.0"/>
  <unicode hex="014A"/>
  <anchor x="495.0" y="0.0" name="bottom"/>
  <anchor x="495.0" y="900.0" name="top"/>
  <outline>
    <contour>
      <point x="666.0" y="-181.0" type="line"/>
      <point x="753.25" y="-150.0"/>
      <point x="819.0" y="-72.0"/>
      <point x="819.0" y="63.25" type="curve" smooth="yes"/>
      <point x="819.0" y="183.25" type="line"/>
      <point x="103.5" y="930.0" type="line"/>
      <point x="103.5" y="696.5" type="line"/>
      <point x="666.0" y="110.0" type="line"/>
    </contour>
    <contour>
      <point x="561.25" y="-198.0" type="curve" smooth="yes"/>
      <point x="574.75" y="-198.0"/>
      <point x="589.0" y="-196.5"/>
      <point x="602.0" y="-193.75" type="curve"/>
      <point x="602.0" y="-34.25" type="line"/>
      <point x="585.5" y="-42.75"/>
      <point x="566.75" y="-46.5"/>
      <point x="546.75" y="-46.5" type="curve" smooth="yes"/>
      <point x="494.25" y="-46.5"/>
      <point x="451.5" y="-19.0"/>
      <point x="424.5" y="24.0" type="curve"/>
      <point x="381.0" y="-132.0" type="line"/>
      <point x="426.0" y="-177.75"/>
      <point x="494.75" y="-198.0"/>
    </contour>
    <contour>
      <point x="103.5" y="0.0" type="line"/>
      <point x="256.5" y="0.0" type="line"/>
      <point x="256.5" y="458.75" type="line"/>
      <point x="103.5" y="618.25" type="line"/>
    </contour>
    <contour>
      <point x="819.0" y="264.25" type="line"/>
      <point x="819.0" y="900.0" type="line"/>
      <point x="666.0" y="900.0" type="line"/>
      <point x="666.0" y="423.0" type="line"/>
    </contour>
  </outline>
</glyph>
<glyph name="OE" format="2">
  <advance width="1335.0"/>
  <unicode hex="0152"/>
  <anchor x="530.0" y="0.0" name="bottom"/>
  <anchor x="530.0" y="450.0" name="center"/>
  <anchor x="530.0" y="0.0" name="ogonek"/>
  <anchor x="530.0" y="900.0" name="top"/>
  <anchor x="530.0" y="495.0" name="top-vertical"/>
  <anchor x="60.0" y="900.0" name="topleft"/>
  <anchor x="1000.0" y="900.0" name="topright"/>
  <outline>
    <contour>
      <point x="496.75" y="-17.0" type="curve"/>
      <point x="496.75" y="141.25" type="line"/>
      <point x="342.25" y="158.0"/>
      <point x="226.0" y="289.75"/>
      <point x="226.0" y="450.0" type="curve" smooth="yes"/>
      <point x="226.0" y="610.25"/>
      <point x="342.25" y="742.0"/>
      <point x="496.75" y="758.75" type="curve"/>
      <point x="496.75" y="917.0" type="line"/>
      <point x="250.0" y="900.5"/>
      <point x="55.5" y="698.25"/>
      <point x="55.5" y="450.0" type="curve" smooth="yes"/>
      <point x="55.5" y="201.75"/>
      <point x="251.0" y="-0.25"/>
    </contour>
    <contour>
      <point x="562.75" y="-17.0" type="line"/>
      <point x="669.0" y="-9.5"/>
      <point x="764.75" y="38.25"/>
      <point x="833.75" y="125.25" type="curve"/>
      <point x="810.0" y="138.75" type="line"/>
      <point x="810.0" y="0.0" type="line"/>
      <point x="967.5" y="0.0" type="line"/>
      <point x="967.5" y="900.0" type="line"/>
      <point x="810.0" y="900.0" type="line"/>
      <point x="810.0" y="761.25" type="line"/>
      <point x="833.75" y="774.75" type="line"/>
      <point x="764.75" y="861.75"/>
      <point x="669.0" y="909.5"/>
      <point x="562.75" y="917.0" type="curve"/>
      <point x="562.75" y="758.75" type="line"/>
      <point x="717.5" y="742.25"/>
      <point x="834.0" y="611.25"/>
      <point x="834.0" y="450.0" type="curve" smooth="yes"/>
      <point x="834.0" y="288.75"/>
      <point x="717.5" y="157.75"/>
      <point x="562.75" y="141.25" type="curve"/>
    </contour>
    <contour>
      <point x="1027.5" y="0.0" type="line"/>
      <point x="1279.5" y="0.0" type="line"/>
      <point x="1279.5" y="147.0" type="line"/>
      <point x="1027.5" y="147.0" type="line"/>
    </contour>
    <contour>
      <point x="1027.5" y="468.0" type="line"/>
      <point x="1209.5" y="468.0" type="line"/>
      <point x="1209.5" y="606.0" type="line"/>
      <point x="1027.5" y="606.0" type="line"/>
    </contour>
    <contour>
      <point x="1027.5" y="757.5" type="line"/>
      <point x="1279.5" y="757.5" type="line"/>
      <point x="1279.5" y="900.0" type="line"/>
      <point x="1027.5" y="900.0" type="line"/>
    </contour>
  </outline>
</glyph>
<glyph name="Schwa" format="2">
  <advance width="1050.0"/>
  <unicode hex="018F"/>
  <outline>
    <contour>
      <point x="488.0" y="-17.0" type="curve"/>
      <point x="488.0" y="136.0" type="line"/>
      <point x="331.25" y="151.25"/>
      <point x="212.5" y="285.75"/>
      <point x="212.5" y="450.0" type="curve"/>
      <point x="155.5" y="390.0" type="line"/>
      <point x="709.0" y="390.0" type="line" smooth="yes"/>
      <point x="766.0" y="390.0"/>
      <point x="824.0" y="398.0"/>
      <point x="881.0" y="410.0" type="curve"/>
      <point x="881.0" y="508.0" type="line"/>
      <point x="824.0" y="520.0"/>
      <point x="766.0" y="528.0"/>
      <point x="709.0" y="528.0" type="curve" smooth="yes"/>
      <point x="46.5" y="528.0" type="line"/>
      <point x="46.5" y="451.25" type="line" smooth="yes"/>
      <point x="46.5" y="201.25"/>
      <point x="241.5" y="-1.75"/>
    </contour>
    <contour>
      <point x="249.0" y="612.5" type="line"/>
      <point x="298.5" y="692.0"/>
      <point x="380.75" y="752.5"/>
      <point x="488.0" y="762.5" type="curve"/>
      <point x="488.0" y="917.0" type="line"/>
      <point x="376.75" y="910.75"/>
      <point x="279.0" y="868.25"/>
      <point x="202.5" y="801.5" type="curve"/>
    </contour>
    <contour>
      <point x="552.0" y="-17.0" type="line"/>
      <point x="799.25" y="-2.0"/>
      <point x="994.5" y="201.0"/>
      <point x="994.5" y="450.0" type="curve" smooth="yes"/>
      <point x="994.5" y="699.0"/>
      <point x="799.25" y="902.0"/>
      <point x="552.0" y="917.0" type="curve"/>
      <point x="552.0" y="762.5" type="line"/>
      <point x="709.25" y="747.5"/>
      <point x="828.5" y="614.25"/>
      <point x="828.5" y="450.0" type="curve" smooth="yes"/>
      <point x="828.5" y="285.75"/>
      <point x="709.25" y="151.25"/>
      <point x="552.0" y="136.0" type="curve"/>
    </contour>
  </outline>
</glyph>
<glyph name="Ohorn" format="2">
  <advance width="1060.0"/>
  <unicode hex="01A0"/>
  <anchor x="530.0" y="0.0" name="bottom"/>
  <anchor x="530.0" y="0.0" name="ogonek"/>
  <anchor x="530.0" y="900.0" name="top"/>
  <outline>
    <contour>
      <point x="564.0" y="-17.0" type="line"/>
      <point x="809.75" y="-0.5"/>
      <point x="1004.5" y="201.75"/>
      <point x="1004.5" y="450.0" type="curve" smooth="yes"/>
      <point x="1004.5" y="698.25"/>
      <point x="809.75" y="900.5"/>
      <point x="564.0" y="917.0" type="curve"/>
      <point x="564.0" y="758.75" type="line"/>
      <point x="717.5" y="742.25"/>
      <point x="834.0" y="611.25"/>
      <point x="834.0" y="450.0" type="curve" smooth="yes"/>
      <point x="834.0" y="288.75"/>
      <point x="717.5" y="157.75"/>
      <point x="564.0" y="141.25" type="curve"/>
    </contour>
    <contour>
      <point x="496.0" y="-17.0" type="curve"/>
      <point x="496.0" y="141.25" type="line"/>
      <point x="342.5" y="157.75"/>
      <point x="226.0" y="289.5"/>
      <point x="226.0" y="450.0" type="curve" smooth="yes"/>
      <point x="226.0" y="610.5"/>
      <point x="342.5" y="742.25"/>
      <point x="496.0" y="758.75" type="curve"/>
      <point x="496.0" y="917.0" type="line"/>
      <point x="250.25" y="900.5"/>
      <point x="55.5" y="698.25"/>
      <point x="55.5" y="450.0" type="curve" smooth="yes"/>
      <point x="55.5" y="201.75"/>
      <point x="250.25" y="-0.5"/>
    </contour>
    <contour>
      <point x="958.5" y="717.25" type="line"/>
      <point x="999.5" y="747.0"/>
      <point x="1024.0" y="798.5"/>
      <point x="1024.0" y="868.0" type="curve" smooth="yes"/>
      <point x="1024.0" y="897.0"/>
      <point x="1019.0" y="928.0"/>
      <point x="1000.0" y="960.0" type="curve"/>
      <point x="859.0" y="960.0" type="line"/>
      <point x="878.0" y="927.0"/>
      <point x="883.0" y="892.0"/>
      <point x="883.0" y="868.0" type="curve" smooth="yes"/>
      <point x="883.0" y="850.25"/>
      <point x="880.0" y="834.25"/>
      <point x="874.25" y="822.0" type="curve"/>
      <point x="865.0" y="853.5" type="line"/>
      <point x="911.0" y="817.0"/>
      <point x="950.25" y="773.0"/>
      <point x="980.75" y="723.5" type="curve"/>
    </contour>
  </outline>
</glyph>
<glyph name="uhorn" format="2">
  <advance width="840.0"/>
  <unicode hex="01B0"/>
  <anchor x="351.0" y="0.0" name="bottom"/>
  <anchor x="348.0" y="600.0" name="top"/>
  <outline>
    <contour>
      <point x="685.5" y="389.75" type="line"/>
      <point x="764.0" y="395.75"/>
      <point x="831.0" y="457.75"/>
      <point x="831.0" y="568.0" type="curve" smooth="yes"/>
      <point x="831.0" y="597.0"/>
      <point x="826.0" y="628.0"/>
      <point x="807.0" y="660.0" type="curve"/>
      <point x="685.5" y="660.0" type="line"/>
      <point x="704.5" y="627.0"/>
      <point x="709.5" y="592.0"/>
      <point x="709.5" y="568.0" type="curve" smooth="yes"/>
      <point x="709.5" y="537.75"/>
      <point x="699.75" y="518.25"/>
      <point x="685.5" y="506.5" type="curve"/>
    </contour>
    <contour>
      <point x="304.75" y="-18.0" type="curve" smooth="yes"/>
      <point x="343.5" y="-18.0"/>
      <point x="381.0" y="-8.75"/>
      <point x="414.0" y="8.0" type="curve"/>
      <point x="414.0" y="143.75" type="line"/>
      <point x="394.0" y="131.25"/>
      <point x="370.75" y="124.5"/>
      <point x="346.5" y="124.5" type="curve" smooth="yes"/>
      <point x="265.25" y="124.5"/>
      <point x="219.0" y="191.5"/>
      <point x="219.0" y="265.5" type="curve" smooth="yes"/>
      <point x="219.0" y="600.0" type="line"/>
      <point x="61.5" y="600.0" type="line"/>
      <point x="61.5" y="244.5" type="line" smooth="yes"/>
      <point x="61.5" y="77.75"/>
      <point x="177.75" y="-18.0"/>
    </contour>
    <contour>
      <point x="474.0" y="0.0" type="line"/>
      <point x="631.5" y="0.0" type="line"/>
      <point x="631.5" y="600.0" type="line"/>
      <point x="474.0" y="600.0" type="line"/>
    </contour>
  </outline>
</glyph>
<glyph name="Ezh" format="2">
  <advance width="660.0"/>
  <unicode hex="01B7"/>
  <anchor x="302.0" y="0.0" name="bottom"/>
  <anchor x="325.75" y="900.0" name="top"/>
  <outline>
    <contour>
      <point x="330.25" y="-17.0" type="line"/>
      <point x="493.75" y="-2.0"/>
      <point x="627.0" y="129.75"/>
      <point x="627.0" y="299.25" type="curve" smooth="yes"/>
      <point x="627.0" y="451.5"/>
      <point x="518.0" y="570.75"/>
      <point x="382.75" y="598.25" type="curve"/>
      <point x="391.75" y="537.0" type="line"/>
      <point x="586.25" y="900.0" type="line"/>
      <point x="423.75" y="900.0" type="line"/>
      <point x="163.75" y="393.25" type="line"/>
      <point x="155.25" y="421.5" type="line"/>
      <point x="201.75" y="452.25"/>
      <point x="244.75" y="469.5"/>
      <point x="296.0" y="469.5" type="curve" smooth="yes"/>
      <point x="399.0" y="469.5"/>
      <point x="471.0" y="394.0"/>
      <point x="471.0" y="300.75" type="curve" smooth="yes"/>
      <point x="471.0" y="215.0"/>
      <point x="410.75" y="145.75"/>
      <point x="330.25" y="132.5" type="curve"/>
    </contour>
    <contour>
      <point x="266.25" y="-17.0" type="curve"/>
      <point x="266.25" y="133.25" type="line"/>
      <point x="175.75" y="149.0"/>
      <point x="110.0" y="231.25"/>
      <point x="105.75" y="324.75" type="curve"/>
      <point x="127.0" y="334.5" type="line"/>
      <point x="-3.75" y="75.5" type="line"/>
      <point x="9.25" y="149.5" type="line"/>
      <point x="57.5" y="58.75"/>
      <point x="153.25" y="-6.75"/>
    </contour>
    <contour>
      <point x="75.0" y="757.5" type="line"/>
      <point x="285.0" y="757.5" type="line"/>
      <point x="358.5" y="900.0" type="line"/>
      <point x="75.0" y="900.0" type="line"/>
    </contour>
  </outline>
</glyph>
<glyph name="jdotless" format="2">
  <advance width="307.5"/>
  <unicode hex="0237"/>
  <anchor x="157.75" y="-300.0" name="bottom"/>
  <anchor x="155.5" y="600.0" name="top"/>
  <outline>
    <contour>
      <point x="35.5" y="-312.0" type="line"/>
      <point x="150.25" y="-312.0"/>
      <point x="234.0" y="-236.5"/>
      <point x="234.0" y="-105.25" type="curve" smooth="yes"/>
      <point x="234.0" y="600.0" type="line"/>
      <point x="78.5" y="600.0" type="line"/>
      <point x="78.5" y="-104.75" type="line" smooth="yes"/>
      <point x="78.5" y="-162.0"/>
      <point x="51.75" y="-184.5"/>
      <point x="5.25" y="-184.5" type="curve"/>
    </contour>
  </outline>
</glyph>
<glyph name="tildecomb" format="2">
  <unicode hex="0303"/>
  <anchor x="360.0" y="600.0" name="_top"/>
  <outline>
    <contour>
      <point x="179.75" y="683.0" type="line"/>
      <point x="198.25" y="728.0"/>
      <point x="227.75" y="754.5"/>
      <point x="270.5" y="754.5" type="curve" smooth="yes"/>
      <point x="328.25" y="754.5"/>
      <point x="381.0" y="703.5"/>
      <point x="451.0" y="703.5" type="curve" smooth="yes"/>
      <point x="505.5" y="703.5"/>
      <point x="552.75" y="733.0"/>
      <point x="579.75" y="786.0" type="curve"/>
      <point x="540.25" y="899.5" type="line"/>
      <point x="521.75" y="854.5"/>
      <point x="492.25" y="828.0"/>
      <point x="449.5" y="828.0" type="curve" smooth="yes"/>
      <point x="391.75" y="828.0"/>
      <point x="339.0" y="879.0"/>
      <point x="269.0" y="879.0" type="curve" smooth="yes"/>
      <point x="214.5" y="879.0"/>
      <point x="167.25" y="849.5"/>
      <point x="140.25" y="796.5" type="curve"/>
    </contour>
  </outline>
</glyph>
<glyph name="brevecomb" format="2">
  <unicode hex="0306"/>
  <anchor x="360.0" y="600.0" name="_top"/>
  <anchor x="360.0" y="849.0" name="top"/>
  <outline>
    <contour>
      <point x="360.0" y="666.0" type="curve" smooth="yes"/>
      <point x="471.5" y="666.0"/>
      <point x="558.0" y="747.5"/>
      <point x="558.0" y="858.0" type="curve"/>
      <point x="441.5" y="858.0" type="line"/>
      <point x="441.5" y="813.0"/>
      <point x="403.75" y="776.5"/>
      <point x="360.0" y="776.5" type="curve" smooth="yes"/>
      <point x="316.25" y="776.5"/>
      <point x="278.5" y="813.0"/>
      <point x="278.5" y="858.0" type="curve"/>
      <point x="162.0" y="858.0" type="line"/>
      <point x="162.0" y="749.25"/>
      <point x="249.5" y="666.0"/>
    </contour>
  </outline>
</glyph>
<glyph name="horncomb" format="2">
  <unicode hex="031B"/>
  <anchor x="237.0" y="600.0" name="_topright"/>
  <outline>
    <contour>
      <point x="333.0" y="398.0" type="curve" smooth="yes"/>
      <point x="412.0" y="398.0"/>
      <point x="483.0" y="459.0"/>
      <point x="483.0" y="565.0" type="curve" smooth="yes"/>
      <point x="483.0" y="660.0" type="line"/>
      <point x="387.0" y="660.0" type="line"/>
      <point x="387.0" y="561.0" type="line" smooth="yes"/>
      <point x="387.0" y="516.0"/>
      <point x="359.0" y="476.0"/>
      <point x="309.0" y="476.0" type="curve" smooth="yes"/>
      <point x="277.0" y="476.0"/>
      <point x="248.0" y="494.0"/>
      <point x="237.0" y="529.0" type="curve"/>
      <point x="237.0" y="433.0" type="line"/>
      <point x="263.0" y="410.0"/>
      <point x="297.0" y="398.0"/>
    </contour>
  </outline>
</glyph>
<glyph name="ogonekcomb" format="2">
  <unicode hex="0328"/>
  <anchor x="403.0" y="0.0" name="_ogonek"/>
  <outline>
    <contour>
      <point x="466.25" y="-316.5" type="curve"/>
      <point x="494.25" y="-197.25" type="line"/>
      <point x="447.0" y="-196.5"/>
      <point x="411.75" y="-173.25"/>
      <point x="411.75" y="-120.5" type="curve" smooth="yes"/>
      <point x="411.75" y="-96.5"/>
      <point x="419.0" y="-75.25"/>
      <point x="431.5" y="-54.0" type="curve"/>
      <point x="300.25" y="-54.0" type="line"/>
      <point x="283.25" y="-86.0"/>
      <point x="274.25" y="-119.0"/>
      <point x="274.25" y="-153.0" type="curve" smooth="yes"/>
      <point x="274.25" y="-263.0"/>
      <point x="357.5" y="-316.5"/>
    </contour>
  </outline>
</glyph>
<glyph name="slashlongcomb" format="2">
  <unicode hex="0338"/>
  <anchor x="278.0" y="300.0" name="_center"/>
  <outline>
    <contour>
      <point x="67.0" y="-23.25" type="line"/>
      <point x="556.0" y="558.75" type="line"/>
      <point x="483.0" y="622.25" type="line"/>
      <point x="-6.0" y="40.25" type="line"/>
    </contour>
  </outline>
</glyph>
<glyph name="Germandbls" format="2">
  <advance width="990.0"/>
  <unicode hex="1E9E"/>
  <outline>
    <contour>
      <point x="512.75" y="439.25" type="line"/>
      <point x="547.25" y="458.0"/>
      <point x="581.75" y="468.0"/>
      <point x="621.0" y="468.0" type="curve" smooth="yes"/>
      <point x="640.25" y="468.0"/>
      <point x="658.75" y="465.0"/>
      <point x="675.0" y="459.5" type="curve"/>
      <point x="910.5" y="900.0" type="line"/>
      <point x="333.75" y="900.0" type="line"/>
      <point x="333.75" y="754.5" type="line"/>
      <point x="674.0" y="754.5" type="line"/>
    </contour>
    <contour>
      <point x="593.25" y="-17.0" type="curve"/>
      <point x="593.25" y="131.75" type="line"/>
      <point x="510.75" y="145.5"/>
      <point x="448.75" y="214.25"/>
      <point x="433.5" y="296.75" type="curve"/>
      <point x="348.0" y="126.75" type="line"/>
      <point x="398.75" y="47.0"/>
      <point x="489.0" y="-8.0"/>
    </contour>
    <contour>
      <point x="106.5" y="0.0" type="line"/>
      <point x="273.75" y="0.0" type="line"/>
      <point x="273.75" y="900.0" type="line"/>
      <point x="106.5" y="900.0" type="line"/>
    </contour>
    <contour>
      <point x="653.25" y="-17.0" type="line"/>
      <point x="817.0" y="-2.0"/>
      <point x="950.5" y="129.0"/>
      <point x="950.5" y="297.75" type="curve" smooth="yes"/>
      <point x="950.5" y="411.5"/>
      <point x="888.25" y="508.0"/>
      <point x="800.5" y="559.0" type="curve"/>
      <point x="731.0" y="431.0" type="line"/>
      <point x="770.75" y="401.0"/>
      <point x="796.0" y="353.25"/>
      <point x="796.0" y="299.25" type="curve" smooth="yes"/>
      <point x="796.0" y="213.5"/>
      <point x="735.5" y="144.5"/>
      <point x="653.25" y="131.0" type="curve"/>
    </contour>
  </outline>
</glyph>
<glyph name="daggerdbl" format="2">
  <advance width="600.0"/>
  <unicode hex="2021"/>
  <outline>
    <contour>
      <point x="236.5" y="480.0" type="line"/>
      <point x="363.5" y="480.0" type="line"/>
      <point x="357.5" y="663.0" type="line"/>
      <point x="308.25" y="579.75" type="line"/>
      <point x="537.0" y="568.5" type="line"/>
      <point x="537.0" y="692.25" type="line"/>
      <point x="357.5" y="680.25" type="line"/>
      <point x="374.25" y="900.0" type="line"/>
      <point x="225.75" y="900.0" type="line"/>
      <point x="243.25" y="680.25" type="line"/>
      <point x="63.0" y="692.25" type="line"/>
      <point x="63.0" y="568.5" type="line"/>
      <point x="291.75" y="579.75" type="line"/>
      <point x="243.25" y="663.0" type="line"/>
    </contour>
    <contour>
      <point x="225.75" y="0.0" type="line"/>
      <point x="374.25" y="0.0" type="line"/>
      <point x="356.75" y="219.75" type="line"/>
      <point x="537.0" y="207.75" type="line"/>
      <point x="537.0" y="331.5" type="line"/>
      <point x="308.25" y="320.25" type="line"/>
      <point x="356.75" y="237.0" type="line"/>
      <point x="363.5" y="420.0" type="line"/>
      <point x="236.5" y="420.0" type="line"/>
      <point x="242.5" y="237.0" type="line"/>
      <point x="291.75" y="320.25" type="line"/>
      <point x="63.0" y="331.5" type="line"/>
      <point x="63.0" y="207.75" type="line"/>
      <point x="242.5" y="219.75" type="line"/>
    </contour>
  </outline>
</glyph>
<glyph name="bullet" format="2">
  <advance width="480.0"/>
  <unicode hex="2022"/>
  <outline>
    <contour>
      <point x="240.0" y="294.0" type="curve" smooth="yes"/>
      <point x="326.0" y="294.0"/>
      <point x="396.0" y="364.0"/>
      <point x="396.0" y="450.0" type="curve" smooth="yes"/>
      <point x="396.0" y="536.0"/>
      <point x="326.0" y="606.0"/>
      <point x="240.0" y="606.0" type="curve" smooth="yes"/>
      <point x="154.0" y="606.0"/>
      <point x="84.0" y="536.0"/>
      <point x="84.0" y="450.0" type="curve" smooth="yes"/>
      <point x="84.0" y="364.0"/>
      <point x="154.0" y="294.0"/>
    </contour>
  </outline>
</glyph>
<glyph name="fraction" format="2">
  <advance width="120.0"/>
  <unicode hex="2044"/>
  <outline>
    <contour>
      <point x="-319.5" y="0.0" type="line"/>
      <point x="-179.25" y="0.0" type="line"/>
      <point x="439.5" y="900.0" type="line"/>
      <point x="299.25" y="900.0" type="line"/>
    </contour>
  </outline>
</glyph>
<glyph name="euro" format="2">
  <advance width="750.0"/>
  <unicode hex="20AC"/>
  <outline>
    <contour>
      <point x="170.75" y="517.75" type="curve"/>
      <point x="325.25" y="517.75" type="line"/>
      <point x="336.5" y="646.25"/>
      <point x="380.0" y="741.5"/>
      <point x="456.0" y="767.75" type="curve"/>
      <point x="456.0" y="914.75" type="line"/>
      <point x="295.25" y="892.25"/>
      <point x="189.25" y="733.0"/>
    </contour>
    <contour>
      <point x="456.0" y="-14.75" type="curve"/>
      <point x="456.0" y="132.5" type="line"/>
      <point x="384.25" y="157.25"/>
      <point x="341.5" y="244.75"/>
      <point x="328.0" y="361.75" type="curve"/>
      <point x="173.25" y="361.75" type="line"/>
      <point x="196.75" y="156.5"/>
      <point x="300.25" y="8.0"/>
    </contour>
    <contour>
      <point x="76.5" y="300.0" type="line"/>
      <point x="553.5" y="300.0" type="line"/>
      <point x="553.5" y="402.0" type="line"/>
      <point x="76.5" y="402.0" type="line"/>
    </contour>
    <contour>
      <point x="516.0" y="-17.25" type="line"/>
      <point x="583.25" y="-13.25"/>
      <point x="647.75" y="15.25"/>
      <point x="699.0" y="63.25" type="curve"/>
      <point x="656.75" y="230.75" type="line"/>
      <point x="625.75" y="176.25"/>
      <point x="575.5" y="130.75"/>
      <point x="516.0" y="125.5" type="curve"/>
    </contour>
    <contour>
      <point x="76.5" y="498.0" type="line"/>
      <point x="553.5" y="498.0" type="line"/>
      <point x="553.5" y="600.0" type="line"/>
      <point x="76.5" y="600.0" type="line"/>
    </contour>
    <contour>
      <point x="656.75" y="669.5" type="curve"/>
      <point x="699.0" y="836.75" type="line"/>
      <point x="647.75" y="884.75"/>
      <point x="583.75" y="913.25"/>
      <point x="516.0" y="917.25" type="curve"/>
      <point x="516.0" y="774.5" type="line"/>
      <point x="576.0" y="768.5"/>
      <point x="625.75" y="723.0"/>
    </contour>
  </outline>
</glyph>
<glyph name="careof" format="2">
  <advance width="960.0"/>
  <unicode hex="2105"/>
  <outline>
    <contour>
      <point x="85.75" y="0.0" type="line"/>
      <point x="214.75" y="0.0" type="line"/>
      <point x="833.5" y="900.0" type="line"/>
      <point x="704.5" y="900.0" type="line"/>
    </contour>
    <contour>
      <point x="692.0" y="-14.5" type="curve"/>
      <point x="692.0" y="96.25" type="line"/>
      <point x="653.75" y="108.5"/>
      <point x="629.25" y="141.0"/>
      <point x="629.25" y="180.0" type="curve" smooth="yes"/>
      <point x="629.25" y="219.0"/>
      <point x="653.75" y="251.5"/>
      <point x="692.0" y="263.75" type="curve"/>
      <point x="692.0" y="374.5" type="line"/>
      <point x="591.0" y="360.5"/>
      <point x="516.0" y="278.25"/>
      <point x="516.0" y="180.0" type="curve" smooth="yes"/>
      <point x="516.0" y="81.75"/>
      <point x="591.0" y="-0.5"/>
    </contour>
    <contour>
      <point x="212.0" y="525.5" type="curve"/>
      <point x="212.0" y="637.75" type="line"/>
      <point x="176.75" y="650.75"/>
      <point x="153.75" y="682.5"/>
      <point x="153.75" y="720.0" type="curve" smooth="yes"/>
      <point x="153.75" y="757.5"/>
      <point x="176.75" y="789.25"/>
      <point x="212.0" y="802.25" type="curve"/>
      <point x="212.0" y="914.5" type="line"/>
      <point x="112.0" y="901.5"/>
      <point x="36.0" y="819.25"/>
      <point x="36.0" y="720.0" type="curve" smooth="yes"/>
      <point x="36.0" y="620.75"/>
      <point x="112.0" y="538.5"/>
    </contour>
    <contour>
      <point x="268.0" y="525.0" type="line"/>
      <point x="305.5" y="527.0"/>
      <point x="340.0" y="537.5"/>
      <point x="370.0" y="556.0" type="curve"/>
      <point x="343.0" y="663.25" type="line"/>
      <point x="324.75" y="645.0"/>
      <point x="300.75" y="633.25"/>
      <point x="268.0" y="633.0" type="curve"/>
    </contour>
    <contour>
      <point x="748.0" y="-14.5" type="line"/>
      <point x="849.0" y="-0.5"/>
      <point x="924.0" y="81.75"/>
      <point x="924.0" y="180.0" type="curve" smooth="yes"/>
      <point x="924.0" y="278.25"/>
      <point x="849.0" y="360.5"/>
      <point x="748.0" y="374.5" type="curve"/>
      <point x="748.0" y="263.75" type="line"/>
      <point x="785.25" y="251.5"/>
      <point x="810.75" y="219.0"/>
      <point x="810.75" y="180.0" type="curve" smooth="yes"/>
      <point x="810.75" y="141.0"/>
      <point x="785.25" y="108.5"/>
      <point x="748.0" y="96.25" type="curve"/>
    </contour>
    <contour>
      <point x="343.0" y="777.0" type="curve"/>
      <point x="370.0" y="884.0" type="line"/>
      <point x="340.0" y="902.5"/>
      <point x="305.5" y="913.0"/>
      <point x="268.0" y="915.0" type="curve"/>
      <point x="268.0" y="807.0" type="line"/>
      <point x="300.75" y="806.75"/>
      <point x="325.5" y="795.0"/>
    </contour>
  </outline>
</glyph>
<glyph name="numero" format="2">
  <advance width="1402.5"/>
  <unicode hex="2116"/>
  <outline>
    <contour>
      <point x="819.0" y="-30.0" type="line"/>
      <point x="819.0" y="203.5" type="line"/>
      <point x="103.5" y="930.0" type="line"/>
      <point x="103.5" y="698.0" type="line"/>
    </contour>
    <contour>
      <point x="103.5" y="0.0" type="line"/>
      <point x="256.5" y="0.0" type="line"/>
      <point x="256.5" y="446.25" type="line"/>
      <point x="103.5" y="600.5" type="line"/>
    </contour>
    <contour>
      <point x="819.0" y="301.0" type="line"/>
      <point x="819.0" y="900.0" type="line"/>
      <point x="666.0" y="900.0" type="line"/>
      <point x="666.0" y="455.0" type="line"/>
    </contour>
    <contour>
      <point x="1162.5" y="102.0" type="curve" smooth="yes"/>
      <point x="1217.5" y="102.0"/>
      <point x="1260.0" y="144.75"/>
      <point x="1260.0" y="199.5" type="curve" smooth="yes"/>
      <point x="1260.0" y="254.25"/>
      <point x="1217.5" y="297.0"/>
      <point x="1162.5" y="297.0" type="curve" smooth="yes"/>
      <point x="1107.75" y="297.0"/>
      <point x="1065.0" y="254.25"/>
      <point x="1065.0" y="199.5" type="curve" smooth="yes"/>
      <point x="1065.0" y="144.75"/>
      <point x="1107.75" y="102.0"/>
    </contour>
    <contour>
      <point x="1134.5" y="405.5" type="curve"/>
      <point x="1134.5" y="516.25" type="line"/>
      <point x="1096.25" y="528.5"/>
      <point x="1071.75" y="561.0"/>
      <point x="1071.75" y="600.0" type="curve" smooth="yes"/>
      <point x="1071.75" y="639.0"/>
      <point x="1096.25" y="671.5"/>
      <point x="1134.5" y="683.75" type="curve"/>
      <point x="1134.5" y="794.5" type="line"/>
      <point x="1033.5" y="780.5"/>
      <point x="958.5" y="698.25"/>
      <point x="958.5" y="600.0" type="curve" smooth="yes"/>
      <point x="958.5" y="501.75"/>
      <point x="1033.5" y="419.5"/>
    </contour>
    <contour>
      <point x="1190.5" y="405.5" type="line"/>
      <point x="1291.5" y="419.5"/>
      <point x="1366.5" y="501.75"/>
      <point x="1366.5" y="600.0" type="curve" smooth="yes"/>
      <point x="1366.5" y="698.25"/>
      <point x="1291.5" y="780.5"/>
      <point x="1190.5" y="794.5" type="curve"/>
      <point x="1190.5" y="683.75" type="line"/>
      <point x="1227.75" y="671.5"/>
      <point x="1253.25" y="639.0"/>
      <point x="1253.25" y="600.0" type="curve" smooth="yes"/>
      <point x="1253.25" y="561.0"/>
      <point x="1227.75" y="528.5"/>
      <point x="1190.5" y="516.25" type="curve"/>
    </contour>
  </outline>
</glyph>
<glyph name="dek" format="2">
  <advance width="750.0"/>
  <unicode hex="218A"/>
  <outline>
    <contour>
      <point x="352.0" y="-16.75" type="curve"/>
      <point x="352.0" y="132.75" type="line"/>
      <point x="293.5" y="145.75"/>
      <point x="250.75" y="196.75"/>
      <point x="250.75" y="259.25" type="curve" smooth="yes"/>
      <point x="250.75" y="286.75"/>
      <point x="259.5" y="316.0"/>
      <point x="291.0" y="363.0" type="curve" smooth="yes"/>
      <point x="655.75" y="900.0" type="line"/>
      <point x="485.5" y="900.75" type="line"/>
      <point x="163.75" y="444.25" type="line" smooth="yes"/>
      <point x="114.0" y="374.25"/>
      <point x="93.25" y="321.5"/>
      <point x="93.25" y="259.25" type="curve" smooth="yes"/>
      <point x="93.25" y="115.25"/>
      <point x="209.0" y="-2.25"/>
    </contour>
    <contour>
      <point x="416.0" y="-16.0" type="line"/>
      <point x="560.0" y="-1.25"/>
      <point x="669.25" y="119.0"/>
      <point x="669.25" y="258.5" type="curve" smooth="yes"/>
      <point x="669.25" y="300.5"/>
      <point x="659.0" y="339.5"/>
      <point x="638.0" y="378.0" type="curve"/>
      <point x="456.75" y="378.0" type="line"/>
      <point x="496.25" y="345.0"/>
      <point x="516.25" y="303.75"/>
      <point x="516.25" y="259.25" type="curve" smooth="yes"/>
      <point x="516.25" y="196.75"/>
      <point x="473.5" y="145.0"/>
      <point x="416.0" y="132.0" type="curve"/>
    </contour>
    <contour>
      <point x="80.75" y="753.0" type="line"/>
      <point x="314.75" y="753.0" type="line"/>
      <point x="418.75" y="900.0" type="line"/>
      <point x="80.75" y="900.0" type="line"/>
    </contour>
  </outline>
</glyph>
<glyph name="el" format="2">
  <advance width="750.0"/>
  <unicode hex="218B"/>
  <outline>
    <contour>
      <point x="122.25" y="0.0" type="line"/>
      <point x="282.75" y="0.0" type="line"/>
      <point x="529.5" y="477.5" type="line"/>
      <point x="497.25" y="462.25"/>
      <point x="467.0" y="455.75"/>
      <point x="431.0" y="455.75" type="curve" smooth="yes"/>
      <point x="339.0" y="455.75"/>
      <point x="272.5" y="526.0"/>
      <point x="272.5" y="613.75" type="curve" smooth="yes"/>
      <point x="272.5" y="693.25"/>
      <point x="327.0" y="756.75"/>
      <point x="401.25" y="769.75" type="curve"/>
      <point x="401.25" y="917.0" type="line"/>
      <point x="244.75" y="902.0"/>
      <point x="118.0" y="773.5"/>
      <point x="118.0" y="613.5" type="curve" smooth="yes"/>
      <point x="118.0" y="470.5"/>
      <point x="219.5" y="357.25"/>
      <point x="348.5" y="331.0" type="curve"/>
      <point x="334.0" y="395.25" type="line"/>
    </contour>
    <contour>
      <point x="349.5" y="0.0" type="line"/>
      <point x="669.25" y="0.0" type="line"/>
      <point x="669.25" y="142.5" type="line"/>
      <point x="422.0" y="142.5" type="line"/>
    </contour>
    <contour>
      <point x="605.25" y="626.25" type="curve"/>
      <point x="688.5" y="789.25" type="line"/>
      <point x="638.5" y="860.25"/>
      <point x="557.5" y="908.0"/>
      <point x="465.25" y="917.0" type="curve"/>
      <point x="465.25" y="769.5" type="line"/>
      <point x="535.0" y="756.5"/>
      <point x="587.5" y="698.5"/>
    </contour>
  </outline>
</glyph>
<glyph name="greaterequal" format="2">
  <advance width="750.0"/>
  <unicode hex="2265"/>
  <outline>
    <contour>
      <point x="76.5" y="195.5" type="line"/>
      <point x="717.0" y="510.5" type="line"/>
      <point x="76.5" y="826.5" type="line"/>
      <point x="76.5" y="684.25" type="line"/>
      <point x="331.5" y="562.0" type="line" smooth="yes"/>
      <point x="368.5" y="544.0"/>
      <point x="411.5" y="527.0"/>
      <point x="452.5" y="511.0" type="curve"/>
      <point x="411.5" y="494.0"/>
      <point x="368.5" y="477.0"/>
      <point x="331.5" y="459.0" type="curve" smooth="yes"/>
      <point x="76.5" y="335.75" type="line"/>
    </contour>
    <contour>
      <point x="76.5" y="56.0" type="line"/>
      <point x="673.5" y="56.0" type="line"/>
      <point x="673.5" y="166.0" type="line"/>
      <point x="76.5" y="166.0" type="line"/>
    </contour>
  </outline>
</glyph>
<glyph name="A.ring" format="2">
  <advance width="815.0"/>
  <anchor x="407.5" y="900.0" name="top"/>
  <outline>
    <contour>
      <point x="635.5" y="0.0" type="line"/>
      <point x="801.5" y="0.0" type="line"/>
      <point x="422.0" y="900.0" type="line"/>
      <point x="393.0" y="900.0" type="line"/>
      <point x="327.5" y="745.0" type="line"/>
    </contour>
    <contour>
      <point x="13.5" y="0.0" type="line"/>
      <point x="173.5" y="0.0" type="line"/>
      <point x="371.75" y="480.25" type="line"/>
      <point x="294.0" y="667.75" type="line"/>
    </contour>
    <contour>
      <point x="316.5" y="186.75" type="line"/>
      <point x="615.75" y="186.75" type="line"/>
      <point x="561.25" y="318.5" type="line"/>
      <point x="371.0" y="318.5" type="line"/>
    </contour>
  </outline>
</glyph>
<glyph name="H.bar" format="2">
  <advance width="800.0"/>
  <anchor x="400.0" y="0.0" name="bottom"/>
  <anchor x="400.0" y="720.0" name="center"/>
  <anchor x="400.0" y="900.0" name="top"/>
  <anchor x="126.0" y="900.0" name="topleft"/>
  <outline>
    <contour>
      <point x="537.5" y="0.0" type="line"/>
      <point x="696.5" y="0.0" type="line"/>
      <point x="696.5" y="900.0" type="line"/>
      <point x="537.5" y="900.0" type="line"/>
      <point x="537.5" y="568.5" type="line"/>
      <point x="322.5" y="568.5" type="line"/>
      <point x="322.5" y="421.5" type="line"/>
      <point x="537.5" y="421.5" type="line"/>
    </contour>
    <contour>
      <point x="103.5" y="0.0" type="line"/>
      <point x="262.5" y="0.0" type="line"/>
      <point x="262.5" y="900.0" type="line"/>
      <point x="103.5" y="900.0" type="line"/>
    </contour>
  </outline>
</glyph>
<glyph name="acutecomb.case" format="2">
  <anchor x="270.0" y="900.0" name="_top"/>
  <anchor x="432.0" y="1170.0" name="top"/>
  <outline>
    <contour>
      <point x="189.75" y="981.0" type="line"/>
      <point x="338.25" y="981.0" type="line"/>
      <point x="537.75" y="1179.0" type="line"/>
      <point x="339.75" y="1179.0" type="line"/>
    </contour>
  </outline>
</glyph>
<glyph name="brevecomb_gravecomb" format="2">
  <anchor x="360.0" y="600.0" name="_top"/>
  <outline>
    <contour>
      <point x="360.0" y="666.0" type="curve" smooth="yes"/>
      <point x="471.25" y="666.0"/>
      <point x="558.0" y="747.75"/>
      <point x="558.0" y="858.0" type="curve"/>
      <point x="451.5" y="858.0" type="line"/>
      <point x="451.5" y="807.25"/>
      <point x="408.75" y="766.5"/>
      <point x="360.0" y="766.5" type="curve" smooth="yes"/>
      <point x="311.25" y="766.5"/>
      <point x="268.5" y="807.25"/>
      <point x="268.5" y="858.0" type="curve"/>
      <point x="162.0" y="858.0" type="line"/>
      <point x="162.0" y="749.0"/>
      <point x="249.25" y="666.0"/>
    </contour>
    <contour>
      <point x="314.25" y="879.0" type="line"/>
      <point x="429.75" y="879.0" type="line"/>
      <point x="359.0" y="1029.0" type="line"/>
      <point x="205.0" y="1029.0" type="line"/>
    </contour>
  </outline>
</glyph>
<glyph name="caroncomb.alt" format="2">
  <anchor x="225.5" y="960.0" name="_topright"/>
  <outline>
    <contour>
      <point x="243.25" y="637.5" type="curve"/>
      <point x="392.5" y="637.5" type="line"/>
      <point x="452.75" y="728.5"/>
      <point x="483.5" y="836.75"/>
      <point x="483.5" y="960.0" type="curve"/>
      <point x="342.5" y="960.0" type="line"/>
      <point x="342.5" y="822.25"/>
      <point x="301.0" y="717.5"/>
    </contour>
  </outline>
</glyph>
<glyph name="dieresiscomb.Adieresis.case" format="2">
  <anchor x="420.0" y="900.0" name="_top"/>
  <anchor x="420.0" y="1071.0" name="top"/>
  <outline>
    <contour>
      <point x="594.0" y="909.0" type="curve" smooth="yes"/>
      <point x="645.5" y="909.0"/>
      <point x="684.0" y="947.5"/>
      <point x="684.0" y="999.0" type="curve" smooth="yes"/>
      <point x="684.0" y="1050.5"/>
      <point x="645.5" y="1089.0"/>
      <point x="594.0" y="1089.0" type="curve" smooth="yes"/>
      <point x="542.5" y="1089.0"/>
      <point x="504.0" y="1050.5"/>
      <point x="504.0" y="999.0" type="curve" smooth="yes"/>
      <point x="504.0" y="947.5"/>
      <point x="542.5" y="909.0"/>
    </contour>
    <contour>
      <point x="246.0" y="909.0" type="curve" smooth="yes"/>
      <point x="297.5" y="909.0"/>
      <point x="336.0" y="947.5"/>
      <point x="336.0" y="999.0" type="curve" smooth="yes"/>
      <point x="336.0" y="1050.5"/>
      <point x="297.5" y="1089.0"/>
      <point x="246.0" y="1089.0" type="curve" smooth="yes"/>
      <point x="194.5" y="1089.0"/>
      <point x="156.0" y="1050.5"/>
      <point x="156.0" y="999.0" type="curve" smooth="yes"/>
      <point x="156.0" y="947.5"/>
      <point x="194.5" y="909.0"/>
    </contour>
  </outline>
</glyph>
<glyph name="dieresiscomb.case" format="2">
  <anchor x="360.0" y="900.0" name="_top"/>
  <anchor x="360.0" y="1149.0" name="top"/>
  <outline>
    <contour>
      <point x="224.25" y="990.75" type="curve" smooth="yes"/>
      <point x="274.5" y="990.75"/>
      <point x="313.5" y="1030.75"/>
      <point x="313.5" y="1080.0" type="curve" smooth="yes"/>
      <point x="313.5" y="1130.25"/>
      <point x="274.5" y="1169.25"/>
      <point x="224.25" y="1169.25" type="curve" smooth="yes"/>
      <point x="175.0" y="1169.25"/>
      <point x="135.0" y="1130.25"/>
      <point x="135.0" y="1080.0" type="curve" smooth="yes"/>
      <point x="135.0" y="1030.75"/>
      <point x="175.0" y="990.75"/>
    </contour>
    <contour>
      <point x="495.75" y="990.75" type="curve" smooth="yes"/>
      <point x="546.0" y="990.75"/>
      <point x="585.0" y="1030.75"/>
      <point x="585.0" y="1080.0" type="curve" smooth="yes"/>
      <point x="585.0" y="1130.25"/>
      <point x="546.0" y="1169.25"/>
      <point x="495.75" y="1169.25" type="curve" smooth="yes"/>
      <point x="446.5" y="1169.25"/>
      <point x="406.5" y="1130.25"/>
      <point x="406.5" y="1080.0" type="curve" smooth="yes"/>
      <point x="406.5" y="1030.75"/>
      <point x="446.5" y="990.75"/>
    </contour>
  </outline>
</glyph>
<glyph name="dieresiscomb.vertical.A" format="2">
  <anchor x="360.0" y="540.0" name="_top-vertical"/>
  <outline>
    <contour>
      <point x="311.0" y="339.75" type="curve" smooth="yes"/>
      <point x="356.0" y="339.75"/>
      <point x="391.25" y="375.0"/>
      <point x="391.25" y="420.0" type="curve" smooth="yes"/>
      <point x="391.25" y="464.0"/>
      <point x="356.0" y="500.25"/>
      <point x="311.0" y="500.25" type="curve" smooth="yes"/>
      <point x="267.0" y="500.25"/>
      <point x="230.75" y="464.0"/>
      <point x="230.75" y="420.0" type="curve" smooth="yes"/>
      <point x="230.75" y="375.0"/>
      <point x="267.0" y="339.75"/>
    </contour>
    <contour>
      <point x="409.0" y="579.75" type="curve" smooth="yes"/>
      <point x="454.0" y="579.75"/>
      <point x="489.25" y="615.0"/>
      <point x="489.25" y="660.0" type="curve" smooth="yes"/>
      <point x="489.25" y="704.0"/>
      <point x="454.0" y="740.25"/>
      <point x="409.0" y="740.25" type="curve" smooth="yes"/>
      <point x="365.0" y="740.25"/>
      <point x="328.75" y="704.0"/>
      <point x="328.75" y="660.0" type="curve" smooth="yes"/>
      <point x="328.75" y="615.0"/>
      <point x="365.0" y="579.75"/>
    </contour>
  </outline>
</glyph>
<glyph name="five.lf" format="2">
  <advance width="690.0"/>
  <outline>
    <contour>
      <point x="330.0" y="-17.0" type="line"/>
      <point x="493.25" y="-2.75"/>
      <point x="623.5" y="129.5"/>
      <point x="623.5" y="298.25" type="curve" smooth="yes"/>
      <point x="623.5" y="475.25"/>
      <point x="484.5" y="597.0"/>
      <point x="327.0" y="602.25" type="curve"/>
      <point x="327.0" y="463.0" type="line"/>
      <point x="407.0" y="449.5"/>
      <point x="469.0" y="388.0"/>
      <point x="469.0" y="299.75" type="curve" smooth="yes"/>
      <point x="469.0" y="213.5"/>
      <point x="408.25" y="146.0"/>
      <point x="330.0" y="131.75" type="curve"/>
    </contour>
    <contour>
      <point x="266.0" y="-17.0" type="curve"/>
      <point x="266.0" y="131.0" type="line"/>
      <point x="187.0" y="144.0"/>
      <point x="125.75" y="209.0"/>
      <point x="108.25" y="288.5" type="curve"/>
      <point x="23.5" y="121.5" type="line"/>
      <point x="75.75" y="44.75"/>
      <point x="164.5" y="-8.0"/>
    </contour>
    <contour>
      <point x="134.5" y="395.75" type="line"/>
      <point x="168.25" y="433.0"/>
      <point x="214.25" y="459.0"/>
      <point x="267.0" y="464.75" type="curve"/>
      <point x="267.0" y="900.0" type="line"/>
      <point x="134.5" y="900.0" type="line"/>
    </contour>
    <contour>
      <point x="327.0" y="757.5" type="line"/>
      <point x="560.0" y="757.5" type="line"/>
      <point x="560.0" y="900.0" type="line"/>
      <point x="327.0" y="900.0" type="line"/>
    </contour>
  </outline>
</glyph>
<glyph name="five.numr" format="2">
  <advance width="480.0"/>
  <outline>
    <contour>
      <point x="239.75" y="405.5" type="line"/>
      <point x="339.75" y="418.0"/>
      <point x="411.0" y="490.0"/>
      <point x="411.0" y="584.0" type="curve" smooth="yes"/>
      <point x="411.0" y="673.25"/>
      <point x="346.75" y="747.0"/>
      <point x="242.5" y="747.0" type="curve" smooth="yes"/>
      <point x="211.75" y="747.0"/>
      <point x="189.75" y="740.75"/>
      <point x="171.5" y="728.25" type="curve"/>
      <point x="219.0" y="692.0" type="line"/>
      <point x="219.0" y="900.0" type="line"/>
      <point x="116.0" y="900.0" type="line"/>
      <point x="116.0" y="622.5" type="line"/>
      <point x="140.0" y="646.5"/>
      <point x="168.75" y="660.75"/>
      <point x="206.0" y="660.75" type="curve" smooth="yes"/>
      <point x="258.75" y="660.75"/>
      <point x="290.5" y="628.0"/>
      <point x="290.5" y="587.0" type="curve" smooth="yes"/>
      <point x="290.5" y="555.5"/>
      <point x="272.0" y="530.25"/>
      <point x="239.75" y="519.25" type="curve"/>
    </contour>
    <contour>
      <point x="183.75" y="405.5" type="curve"/>
      <point x="183.75" y="516.5" type="line"/>
      <point x="142.75" y="525.25"/>
      <point x="116.25" y="556.0"/>
      <point x="107.75" y="589.0" type="curve"/>
      <point x="47.0" y="477.75" type="line"/>
      <point x="75.25" y="441.75"/>
      <point x="123.5" y="412.75"/>
    </contour>
    <contour>
      <point x="273.75" y="799.0" type="line"/>
      <point x="383.25" y="799.0" type="line"/>
      <point x="383.25" y="900.0" type="line"/>
      <point x="273.75" y="900.0" type="line"/>
    </contour>
  </outline>
</glyph>
<glyph name="fraction.titl" format="2">
  <advance width="120.0"/>
  <outline>
    <contour>
      <point x="-290.25" y="0.0" type="line"/>
      <point x="-207.75" y="0.0" type="line"/>
      <point x="410.25" y="900.0" type="line"/>
      <point x="327.75" y="900.0" type="line"/>
    </contour>
  </outline>
</glyph>
<glyph name="guilsinglleft.case" format="2">
  <advance width="360.0"/>
  <outline>
    <contour>
      <point x="183.75" y="210.0" type="line"/>
      <point x="332.25" y="210.0" type="line"/>
      <point x="170.25" y="450.0" type="line"/>
      <point x="332.25" y="690.0" type="line"/>
      <point x="183.75" y="690.0" type="line"/>
      <point x="21.75" y="450.0" type="line"/>
    </contour>
  </outline>
</glyph>
<glyph name="hyphen.titl" format="2">
  <advance width="360.0"/>
  <outline>
    <contour>
      <point x="30.0" y="267.25" type="line"/>
      <point x="330.0" y="267.25" type="line"/>
      <point x="330.0" y="332.75" type="line"/>
      <point x="30.0" y="332.75" type="line"/>
    </contour>
  </outline>
</glyph>
<glyph name="nine.numr" format="2">
  <advance width="480.0"/>
  <outline>
    <contour>
      <point x="168.25" y="420.0" type="line"/>
      <point x="292.5" y="420.0" type="line"/>
      <point x="412.5" y="646.25" type="line" smooth="yes"/>
      <point x="426.0" y="672.5"/>
      <point x="434.75" y="704.0"/>
      <point x="434.75" y="734.25" type="curve" smooth="yes"/>
      <point x="434.75" y="827.0"/>
      <point x="362.75" y="901.25"/>
      <point x="268.0" y="914.5" type="curve"/>
      <point x="268.0" y="808.25" type="line"/>
      <point x="299.25" y="796.25"/>
      <point x="318.75" y="768.5"/>
      <point x="318.75" y="736.25" type="curve" smooth="yes"/>
      <point x="318.75" y="719.75"/>
      <point x="314.5" y="705.25"/>
      <point x="302.25" y="681.5" type="curve" smooth="yes"/>
    </contour>
    <contour>
      <point x="187.25" y="565.5" type="curve"/>
      <point x="236.25" y="656.5" type="line"/>
      <point x="193.5" y="659.5"/>
      <point x="161.25" y="692.5"/>
      <point x="161.25" y="736.25" type="curve" smooth="yes"/>
      <point x="161.25" y="768.5"/>
      <point x="181.75" y="796.25"/>
      <point x="212.0" y="808.25" type="curve"/>
      <point x="212.0" y="914.5" type="line"/>
      <point x="117.25" y="901.25"/>
      <point x="45.25" y="828.5"/>
      <point x="45.25" y="735.5" type="curve" smooth="yes"/>
      <point x="45.25" y="649.0"/>
      <point x="107.0" y="582.0"/>
    </contour>
  </outline>
</glyph>
<glyph name="ogonekcomb.I" format="2">
  <anchor x="403.0" y="0.0" name="_ogonek"/>
  <outline>
    <contour>
      <point x="461.75" y="-316.5" type="curve"/>
      <point x="489.75" y="-197.25" type="line"/>
      <point x="442.5" y="-196.5"/>
      <point x="407.25" y="-173.25"/>
      <point x="407.25" y="-120.5" type="curve" smooth="yes"/>
      <point x="407.25" y="-76.25"/>
      <point x="439.5" y="-31.5"/>
      <point x="487.0" y="0.0" type="curve"/>
      <point x="319.0" y="0.0" type="line"/>
      <point x="286.5" y="-50.0"/>
      <point x="269.75" y="-100.0"/>
      <point x="269.75" y="-153.0" type="curve" smooth="yes"/>
      <point x="269.75" y="-263.0"/>
      <point x="353.0" y="-316.5"/>
    </contour>
  </outline>
</glyph>
<glyph name="one.lf" format="2">
  <advance width="480.0"/>
  <outline>
    <contour>
      <point x="204.0" y="0.0" type="line"/>
      <point x="363.0" y="0.0" type="line"/>
      <point x="363.0" y="715.0" type="line"/>
      <point x="204.0" y="634.75" type="line"/>
    </contour>
    <contour>
      <point x="63.0" y="624.5" type="line"/>
      <point x="363.0" y="775.75" type="line"/>
      <point x="363.0" y="929.0" type="line"/>
      <point x="63.0" y="779.0" type="line"/>
    </contour>
  </outline>
</glyph>
<glyph name="registered.lf" format="2">
  <advance width="1260.0"/>
  <outline>
    <contour>
      <point x="662.0" y="-191.0" type="line"/>
      <point x="955.0" y="-176.0"/>
      <point x="1188.0" y="65.0"/>
      <point x="1188.0" y="360.0" type="curve" smooth="yes"/>
      <point x="1188.0" y="655.0"/>
      <point x="955.0" y="896.0"/>
      <point x="662.0" y="911.0" type="curve"/>
      <point x="662.0" y="789.5" type="line"/>
      <point x="884.75" y="774.5"/>
      <point x="1060.5" y="587.75"/>
      <point x="1060.5" y="360.0" type="curve" smooth="yes"/>
      <point x="1060.5" y="132.25"/>
      <point x="884.75" y="-54.5"/>
      <point x="662.0" y="-69.5" type="curve"/>
    </contour>
    <contour>
      <point x="598.0" y="-191.0" type="curve"/>
      <point x="598.0" y="-69.5" type="line"/>
      <point x="375.25" y="-53.75"/>
      <point x="199.5" y="132.25"/>
      <point x="199.5" y="360.0" type="curve" smooth="yes"/>
      <point x="199.5" y="587.75"/>
      <point x="375.25" y="773.5"/>
      <point x="598.0" y="789.5" type="curve"/>
      <point x="598.0" y="911.0" type="line"/>
      <point x="305.0" y="896.0"/>
      <point x="72.0" y="655.0"/>
      <point x="72.0" y="360.0" type="curve" smooth="yes"/>
      <point x="72.0" y="65.0"/>
      <point x="305.0" y="-176.0"/>
    </contour>
    <contour>
      <point x="419.5" y="90.0" type="line"/>
      <point x="560.5" y="90.0" type="line"/>
      <point x="560.5" y="630.0" type="line"/>
      <point x="419.5" y="630.0" type="line"/>
    </contour>
    <contour>
      <point x="745.5" y="90.0" type="line"/>
      <point x="906.0" y="90.0" type="line"/>
      <point x="780.25" y="288.0" type="line"/>
      <point x="829.5" y="322.0"/>
      <point x="858.5" y="375.0"/>
      <point x="858.5" y="437.5" type="curve" smooth="yes"/>
      <point x="858.5" y="542.0"/>
      <point x="778.5" y="630.0"/>
      <point x="645.5" y="630.0" type="curve" smooth="yes"/>
      <point x="620.5" y="630.0" type="line"/>
      <point x="620.5" y="515.25" type="line"/>
      <point x="630.75" y="515.25" type="line" smooth="yes"/>
      <point x="684.0" y="515.25"/>
      <point x="717.5" y="483.75"/>
      <point x="717.5" y="437.5" type="curve" smooth="yes"/>
      <point x="717.5" y="397.75"/>
      <point x="690.5" y="357.75"/>
      <point x="630.75" y="357.75" type="curve" smooth="yes"/>
      <point x="620.5" y="357.75" type="line"/>
      <point x="620.5" y="248.0" type="line"/>
      <point x="645.5" y="248.0" type="line" smooth="yes"/>
      <point x="661.25" y="248.0"/>
      <point x="675.5" y="248.75"/>
      <point x="689.75" y="251.25" type="curve"/>
      <point x="632.75" y="269.75" type="line"/>
    </contour>
  </outline>
</glyph>
<glyph name="ringcomb_acutecomb.case" format="2">
  <anchor x="360.0" y="900.0" name="_top"/>
  <outline>
    <contour>
      <point x="194.0" y="1017.0" type="curve"/>
      <point x="292.75" y="1017.0" type="line"/>
      <point x="304.0" y="1044.0"/>
      <point x="329.75" y="1062.75"/>
      <point x="360.0" y="1062.75" type="curve" smooth="yes"/>
      <point x="389.25" y="1062.75"/>
      <point x="416.0" y="1044.0"/>
      <point x="427.0" y="1017.0" type="curve"/>
      <point x="526.0" y="1017.0" type="line"/>
      <point x="513.0" y="1097.25"/>
      <point x="443.25" y="1155.0"/>
      <point x="360.0" y="1155.0" type="curve" smooth="yes"/>
      <point x="275.75" y="1155.0"/>
      <point x="207.0" y="1097.25"/>
    </contour>
    <contour>
      <point x="360.0" y="825.0" type="curve" smooth="yes"/>
      <point x="443.25" y="825.0"/>
      <point x="513.0" y="883.5"/>
      <point x="526.0" y="963.0" type="curve"/>
      <point x="427.0" y="963.0" type="line"/>
      <point x="416.75" y="936.0"/>
      <point x="390.0" y="917.25"/>
      <point x="360.0" y="917.25" type="curve" smooth="yes"/>
      <point x="329.75" y="917.25"/>
      <point x="303.25" y="936.0"/>
      <point x="292.25" y="963.0" type="curve"/>
      <point x="194.0" y="963.0" type="line"/>
      <point x="207.0" y="883.5"/>
      <point x="275.75" y="825.0"/>
    </contour>
    <contour>
      <point x="306.0" y="1206.0" type="line"/>
      <point x="421.5" y="1206.0" type="line"/>
      <point x="506.75" y="1335.0" type="line"/>
      <point x="362.75" y="1335.0" type="line"/>
    </contour>
  </outline>
</glyph>
<glyph name="six.lf" format="2">
  <advance width="750.0"/>
  <outline>
    <contour>
      <point x="347.75" y="-17.0" type="curve"/>
      <point x="347.75" y="131.75" type="line"/>
      <point x="269.0" y="146.0"/>
      <point x="210.5" y="215.25"/>
      <point x="210.5" y="298.0" type="curve" smooth="yes"/>
      <point x="210.5" y="341.0"/>
      <point x="222.5" y="384.25"/>
      <point x="254.75" y="442.75" type="curve" smooth="yes"/>
      <point x="502.5" y="900.0" type="line"/>
      <point x="333.5" y="900.0" type="line"/>
      <point x="96.25" y="449.0" type="line" smooth="yes"/>
      <point x="70.25" y="399.0"/>
      <point x="55.5" y="348.75"/>
      <point x="55.5" y="293.75" type="curve" smooth="yes"/>
      <point x="55.5" y="128.75"/>
      <point x="181.75" y="-3.0"/>
    </contour>
    <contour>
      <point x="411.75" y="-17.0" type="line"/>
      <point x="577.5" y="-2.0"/>
      <point x="703.5" y="128.75"/>
      <point x="703.5" y="295.5" type="curve" smooth="yes"/>
      <point x="703.5" y="467.0"/>
      <point x="571.25" y="593.5"/>
      <point x="407.25" y="601.75" type="curve"/>
      <point x="330.5" y="460.0" type="line"/>
      <point x="346.25" y="464.5"/>
      <point x="362.75" y="467.0"/>
      <point x="379.75" y="467.0" type="curve" smooth="yes"/>
      <point x="475.5" y="467.0"/>
      <point x="549.0" y="390.5"/>
      <point x="549.0" y="298.0" type="curve" smooth="yes"/>
      <point x="549.0" y="215.25"/>
      <point x="490.25" y="145.75"/>
      <point x="411.75" y="131.75" type="curve"/>
    </contour>
  </outline>
</glyph>
<glyph name="strokeshortcomb.G" format="2">
  <anchor x="353.0" y="270.0" name="_center"/>
  <outline>
    <contour>
      <point x="60.0" y="212.25" type="line"/>
      <point x="480.0" y="212.25" type="line"/>
      <point x="480.0" y="327.75" type="line"/>
      <point x="60.0" y="327.75" type="line"/>
    </contour>
  </outline>
</glyph>
<glyph name="three.lf" format="2">
  <advance width="690.0"/>
  <outline>
    <contour>
      <point x="326.25" y="-17.0" type="line"/>
      <point x="490.25" y="-2.0"/>
      <point x="624.0" y="128.25"/>
      <point x="624.0" y="295.5" type="curve" smooth="yes"/>
      <point x="624.0" y="433.25"/>
      <point x="532.75" y="543.75"/>
      <point x="413.0" y="582.0" type="curve"/>
      <point x="583.5" y="900.0" type="line"/>
      <point x="421.75" y="900.0" type="line"/>
      <point x="185.0" y="439.25" type="line"/>
      <point x="220.25" y="458.0"/>
      <point x="254.75" y="468.0"/>
      <point x="294.0" y="468.0" type="curve" smooth="yes"/>
      <point x="397.25" y="468.0"/>
      <point x="469.5" y="392.5"/>
      <point x="469.5" y="299.25" type="curve" smooth="yes"/>
      <point x="469.5" y="213.5"/>
      <point x="408.0" y="144.25"/>
      <point x="326.25" y="131.0" type="curve"/>
    </contour>
    <contour>
      <point x="267.0" y="-17.0" type="curve"/>
      <point x="267.0" y="131.75" type="line"/>
      <point x="186.75" y="144.75"/>
      <point x="126.25" y="209.75"/>
      <point x="108.75" y="288.5" type="curve"/>
      <point x="24.0" y="121.5" type="line"/>
      <point x="76.25" y="44.75"/>
      <point x="164.25" y="-8.75"/>
    </contour>
    <contour>
      <point x="85.5" y="759.0" type="line"/>
      <point x="284.0" y="759.0" type="line"/>
      <point x="355.75" y="900.0" type="line"/>
      <point x="85.5" y="900.0" type="line"/>
    </contour>
  </outline>
</glyph>
<glyph name="three.numr" format="2">
  <advance width="480.0"/>
  <outline>
    <contour>
      <point x="238.75" y="405.5" type="line"/>
      <point x="338.75" y="417.0"/>
      <point x="411.0" y="489.0"/>
      <point x="411.0" y="583.5" type="curve" smooth="yes"/>
      <point x="411.0" y="662.5"/>
      <point x="358.75" y="728.0"/>
      <point x="277.5" y="749.0" type="curve"/>
      <point x="277.5" y="689.25" type="line"/>
      <point x="395.25" y="900.0" type="line"/>
      <point x="274.0" y="900.0" type="line"/>
      <point x="136.5" y="643.5" type="line"/>
      <point x="156.25" y="653.5"/>
      <point x="179.5" y="662.0"/>
      <point x="206.5" y="662.0" type="curve" smooth="yes"/>
      <point x="264.25" y="662.0"/>
      <point x="290.5" y="625.75"/>
      <point x="290.5" y="587.75" type="curve" smooth="yes"/>
      <point x="290.5" y="555.25"/>
      <point x="271.0" y="529.25"/>
      <point x="238.75" y="519.0" type="curve"/>
    </contour>
    <contour>
      <point x="182.75" y="405.5" type="curve"/>
      <point x="182.75" y="516.75" type="line"/>
      <point x="141.5" y="526.0"/>
      <point x="116.25" y="556.0"/>
      <point x="107.75" y="589.0" type="curve"/>
      <point x="47.0" y="477.75" type="line"/>
      <point x="74.5" y="441.75"/>
      <point x="122.75" y="412.75"/>
    </contour>
    <contour>
      <point x="70.75" y="794.5" type="line"/>
      <point x="158.5" y="794.5" type="line"/>
      <point x="215.5" y="900.0" type="line"/>
      <point x="70.75" y="900.0" type="line"/>
    </contour>
  </outline>
</glyph>
<glyph name="tildecomb.case" format="2">
  <anchor x="360.0" y="900.0" name="_top"/>
  <outline>
    <contour>
      <point x="160.75" y="991.5" type="line"/>
      <point x="181.5" y="1036.5"/>
      <point x="214.25" y="1063.0"/>
      <point x="255.75" y="1063.0" type="curve" smooth="yes"/>
      <point x="321.5" y="1063.0"/>
      <point x="385.5" y="995.0"/>
      <point x="462.75" y="995.0" type="curve" smooth="yes"/>
      <point x="514.25" y="995.0"/>
      <point x="562.0" y="1024.0"/>
      <point x="589.75" y="1076.25" type="curve"/>
      <point x="558.5" y="1191.0" type="line"/>
      <point x="537.75" y="1146.0"/>
      <point x="505.75" y="1119.5"/>
      <point x="464.25" y="1119.5" type="curve" smooth="yes"/>
      <point x="398.5" y="1119.5"/>
      <point x="334.5" y="1187.5"/>
      <point x="257.25" y="1187.5" type="curve" smooth="yes"/>
      <point x="205.75" y="1187.5"/>
      <point x="158.0" y="1158.5"/>
      <point x="130.25" y="1106.25" type="curve"/>
    </contour>
  </outline>
</glyph>
<glyph name="two.lf" format="2">
  <advance width="690.0"/>
  <outline>
    <contour>
      <point x="64.25" y="0.0" type="line"/>
      <point x="236.0" y="0.0" type="line"/>
      <point x="556.25" y="455.75" type="line"/>
      <point x="605.25" y="525.75"/>
      <point x="626.75" y="578.5"/>
      <point x="626.75" y="640.75" type="curve" smooth="yes"/>
      <point x="626.75" y="784.75"/>
      <point x="511.75" y="902.25"/>
      <point x="368.75" y="917.0" type="curve"/>
      <point x="368.75" y="767.25" type="line"/>
      <point x="427.25" y="754.25"/>
      <point x="469.25" y="703.25"/>
      <point x="469.25" y="640.75" type="curve" smooth="yes"/>
      <point x="469.25" y="613.25"/>
      <point x="460.5" y="584.0"/>
      <point x="429.0" y="537.0" type="curve" smooth="yes"/>
    </contour>
    <contour>
      <point x="303.5" y="0.0" type="line"/>
      <point x="639.25" y="0.0" type="line"/>
      <point x="639.25" y="147.0" type="line"/>
      <point x="406.5" y="147.0" type="line"/>
    </contour>
    <contour>
      <point x="82.0" y="522.0" type="curve"/>
      <point x="263.25" y="522.0" type="line"/>
      <point x="223.75" y="555.0"/>
      <point x="203.75" y="596.25"/>
      <point x="203.75" y="640.75" type="curve" smooth="yes"/>
      <point x="203.75" y="703.25"/>
      <point x="245.75" y="755.0"/>
      <point x="304.75" y="768.0" type="curve"/>
      <point x="304.75" y="916.75" type="line"/>
      <point x="159.75" y="902.0"/>
      <point x="50.75" y="781.75"/>
      <point x="50.75" y="641.5" type="curve" smooth="yes"/>
      <point x="50.75" y="599.5"/>
      <point x="61.0" y="560.5"/>
    </contour>
  </outline>
</glyph>
<glyph name="zero.lf" format="2">
  <advance width="750.0"/>
  <outline>
    <contour>
      <point x="408.5" y="-16.75" type="line"/>
      <point x="611.0" y="3.75"/>
      <point x="703.5" y="233.25"/>
      <point x="703.5" y="450.0" type="curve" smooth="yes"/>
      <point x="703.5" y="666.75"/>
      <point x="611.0" y="896.25"/>
      <point x="408.5" y="916.75" type="curve"/>
      <point x="408.5" y="767.25" type="line"/>
      <point x="503.0" y="740.25"/>
      <point x="540.0" y="584.0"/>
      <point x="540.0" y="450.0" type="curve" smooth="yes"/>
      <point x="540.0" y="316.0"/>
      <point x="503.0" y="159.75"/>
      <point x="408.5" y="132.75" type="curve"/>
    </contour>
    <contour>
      <point x="341.5" y="-16.75" type="curve"/>
      <point x="341.5" y="132.75" type="line"/>
      <point x="247.75" y="159.75"/>
      <point x="210.0" y="316.0"/>
      <point x="210.0" y="450.0" type="curve" smooth="yes"/>
      <point x="210.0" y="584.0"/>
      <point x="247.75" y="740.25"/>
      <point x="341.5" y="767.25" type="curve"/>
      <point x="341.5" y="916.75" type="line"/>
      <point x="139.75" y="896.25"/>
      <point x="46.5" y="666.75"/>
      <point x="46.5" y="450.0" type="curve" smooth="yes"/>
      <point x="46.5" y="233.25"/>
      <point x="139.75" y="3.75"/>
    </contour>
  </outline>
</glyph>
<glyph name="zero.numr" format="2">
  <advance width="480.0"/>
  <outline>
    <contour>
      <point x="268.0" y="410.0" type="line"/>
      <point x="385.0" y="426.5"/>
      <point x="441.0" y="542.25"/>
      <point x="441.0" y="660.0" type="curve" smooth="yes"/>
      <point x="441.0" y="778.5"/>
      <point x="385.25" y="893.5"/>
      <point x="268.0" y="910.0" type="curve"/>
      <point x="268.0" y="794.5" type="line"/>
      <point x="305.5" y="774.25"/>
      <point x="319.5" y="717.75"/>
      <point x="319.5" y="660.0" type="curve" smooth="yes"/>
      <point x="319.5" y="602.25"/>
      <point x="305.25" y="545.0"/>
      <point x="268.0" y="525.5" type="curve"/>
    </contour>
    <contour>
      <point x="212.0" y="410.0" type="curve"/>
      <point x="212.0" y="526.25" type="line"/>
      <point x="174.0" y="545.75"/>
      <point x="160.5" y="602.25"/>
      <point x="160.5" y="660.0" type="curve" smooth="yes"/>
      <point x="160.5" y="717.75"/>
      <point x="174.75" y="774.25"/>
      <point x="212.0" y="793.75" type="curve"/>
      <point x="212.0" y="910.0" type="line"/>
      <point x="95.0" y="892.5"/>
      <point x="39.0" y="778.5"/>
      <point x="39.0" y="660.0" type="curve" smooth="yes"/>
      <point x="39.0" y="542.25"/>
      <point x="95.0" y="427.5"/>
    </contour>
  </outline>
</glyph>
